<svg xmlns="http://www.w3.org/2000/svg" viewBox="0 0 1000 503" fill="none" stroke="#000" stroke-linecap="round" stroke-linejoin="round">
<!-- World map backdrop: coastlines, country borders and routes from Dhaka. Map data: Natural Earth (public domain), via world-atlas. Generated by scripts/make-world-map.mjs - do not edit by hand. -->
<path stroke-width="0.7" d="M992.7 360.6l0.9-0.6l0.9 1.1l-1.1 1.9l-2.1 0.5l-1.6-0.4l0.1-1.7l1.5-1.3l1.4 0.5M-155.4 355.2l0.6-0.2l0.1 1.8M997.3 357.9l-2.2 0.8l-0.1-1.4l5-2.1M549.5 312.3l-1.5 4.6l0.1 2.2l2 1.3l-0.8 3.3l-0.1 2.9l2.3 6.1l1.1 0.8M368 215.7l0.2-1.6M70.6 110.5l-5-5.2l-4.2-1.5l0.4-3.2l1.8-2.2l-2.7-1.5l1.4-2.9l-1.6-2.6l1.2-1.8M76.6 39.3l3.8 0.8l2.4 1.5l2.3 0.3l7.3-2.3l3.3 0.4l9.8-2.2l0.4 1.3l2.5-0.7l1.9-1.5l1.4 0.3l1.6 2.9l5.2-2.2l-1.8 2.4l3.4-0.5l1.8-0.9l2.8 0.2l2.6 1.3l4.8 1.2l2.9 0.5l2.6-0.2l2.1 1.6l-4.8 1.6l4 0.7l9.5-0.9l1.3 1.9l3.9-1.6l-1.5-1.4l2.4-1.1l5.3-0.4l1.5 0.7l1.2 1.8l3-0.3l3.3 1.5l7.9-0.5l1-2l2.6-0.5l3.1 1l-2 3.1l3.3-2.6l1.9 0.1l3.3-3.2l-1.4-2l-1.9-1.2l2.6-3.5l4.5-2.3l2.8 0.5l1.5 1.4l0.9 3.5l-3.2 1.6l4.1 0.6l-2 3.3l4.8-2.5l1.7 2l-2.2 2.4l1.1 2.2l7.5-5.1l2.2-3.5l6.7 0.7l2.4 1.6l-0.8 1.6l-2.8 1.7l0.8 1.7l-1.2 1.6l-6.2 2.3l-3.8 0.5l-2-1l-7.3 5.8l-4.3 2.3l-3.8 0.2l-2.8 1.4l-1.4 2.2l-3.3 0.4l-4.8 2.7l-5 3.9l-2.5 2.7l-2.4 3.9l3.7 0.6l-0.6 5.9l4.1-0.7l4.3 1.5l2.1 1.4l1.2 1.6l2.9 1l2.3 1.5l7.3 0.5l-1.8 3.1l-0.7 3.6l0.4 4l2.9 3.4l2.6-1.1l3-3.7l0.8-5.7l-1.2-1.9l5.1-1.6l4.1-2.5l2.6-2.4l0.7-2.4l-0.5-2.9l-2.2-2.7l4.8-3.6l0.3-3.1l1.6-5.3l2.2-0.7l6.6 1.2l2.6-0.9l4.3 3.1l0.2 1.3l4.6 0.3l-1.3 2.9l-0.9 4.3l2.3 0.6l1.1 2l4.7-1.9l6.3-5.4l4.4 11.6l-1.8 2.2l2.9 2l1.9 2l4.1 1l1.4 1.1l0.2 3l2.1 0.5l0.7 1.3l-0.9 4.1l-4.8 2.6l-5 1.3l-4.4 2.9l-5 0.6l-5.9-0.7l-7.2 0.2l-3.2 2.6l-4.2 1.6l-10 8.3l2.7-0.6l6.1-4.9l6.9-3l4.4-0.4l2 1.8l-3.4 2.5l0 6.7l3.3 1.9l4.9-0.6l4-4.1l-0.5 2.7l1.5 1.3l-4.2 2.4l-10.3 3.7l-4 2.7l-2.1-0.3l0.7-3.1l5.9-3.1l-8.1 0.6M203.1 63.1l2.7-1.6l3.6 0.1l-0.4 0.6l-4 1.9l-1.8-0.1l-0.1-0.9M232.4 29.7l-1.6-1.6l0.8-1.1l1.2-0.2l5.2 0.3l3.1 1.7l-0.3 0.8l-8.4 0.1M212.1 64.3l1.5-1l1 0.1l0.3 0.7l-1.8 1.8l-1.1-0.3l0.1-1.3M204.3 23.1l-2.1 1.2l-3.3-0.2l-2.2-0.8l2.3-1.4l4-0.8l1.2 1.1l0.1 0.9M209.8 15.7l-5.2-0.1l0.1-0.8l4.5 0.1l1.1 0.5l-0.5 0.3M206.4 12.2l1.8 1l-1.6 1l-3.8 0.6l-1.3-0.7l0.1-1l0.9-1.1l3.9 0.2M215.8 24.9l-9-1.3l1.3-3.1l-1.3-1.3l-4.5-0.4l-1.9-0.9l1.9-1.1l4.5 0.1l1.8 1l4.5 0l1.2 0.9l-1.4 1.1l3.1 1.4l6.2 0.3l9-0.9l3.7 0.3l1.7 1.1l-0.3 1.2l-5.9 1.4l-2.7-0.3l-11.9 0.5M172.2 13.9l2.7 0.5l-1.6 0.8l-5.1 0.8l-2.4-0.9l2.8-0.9l3.6-0.3M174.8 12.1l2.3 0.6l-7 0.5l3.7-1.2l1 0.1M265.3 102l-4.8 5.5l2.1-1.2l1.8 0.8l-1.4 1.2l2.3 1l1.5-0.9l2.6 1.2l-1.5 2.6l2.1-0.6l0.3 4.2l-1.9 3.3l-1.4 0.1l-1.7-0.7l1.3-3l-0.7-0.5l-4.1 3.2l-1.7-0.1l2.5-1.7l-2.6-0.9l-8.7 0.1l-0.2-1.1l2.1-1.3l-1-1l3-2.2l4.5-5.8l2.4-2l2.7-1.3l1.3 0.2l-0.8 0.9M208.1 54.2l4.6 2.2l-0.6 1.6l2-0.3l1.3 1.1l-2.8 1.1l-3.7-0.8l-0.6-1.5l-8.1 3.5l0.1-2l-3.6 0.3l3.1-1.6l4.4-5.6l1.6 0.2l-0.3 1.5l1.6-0.5l1 0.8M233.9 31.1l3-1.2l6.9 3l-0.5 1.4l4.9-0.7l1.5 1.9l5.2 1.3l1.5 1.3l0.9 2.9l-5.2 1.5l4.8 2.1l3.6 0.7l2.4 3l3.8 0.2l-1.7 2.3l-6.1 3.8l-2.5-1.4l-2.6-3.2l-3.5 0.5l-1.1 1.8l5.3 4.3l0.3 3.3l-1.9 2.5l-8.2-3.6l4.3 4.9l-0.1 1.2l-6.5-1.4l-4.8-1.9l-2.4-1.7l1.3-0.9l-6-3.3l-0.4 0.9l-7.7 0.6l-1.6-1.2l2.9-2.4l10.3-0.5l-0.3-1.2l1.7-1.6l4.8-3.2l-0.4-2.5l-3-1.6l-4.4-1l2-0.9l-1.5-1.9l-2.1-0.2l-1.3-1.1l-1.8 0.9l-4.7 0.5l-8.5-0.8l-8.2-1.4l-1.4-1.1l3.5-1.4l-3.4 0l1.3-3.1l3.8-2.8l3.3-1.2l6.6-0.8l-3.1 1.9l0.6 1.9l3.9-2.4l6.8-1.3l2 3.2l-1.6 2l5.3-0.9M200.3 25.7l4.8 0.1l4 0.7l-5.5 2.7l-3.3 0.6l-4.2 2.3l-2.6-0.1l0.5-2.7l1.1-1.5l2.2-1.3l3-0.8M139.7 19.8l12.9-4l6.9-0.4l-2.6 2.2l-2.8 1l-12 1.8l-2.4-0.6M54 92.3l2.9-0.3l-3.6 4l0.6 2.9l-1.2 0l-1.2-4.4l1.5-2.7l1 0.5M188.5 10.8l8.9 1.4l0.2 2.4l-6.2-1.2l-4.9-0.1l3-0.8l-2-0.7l1-1M67.7 112.3l-1.7 0.5l-3.8-1.7l-0.1-1.3l-1.9-1.3l0.1-1l-2.5-0.7l0.1-1.9l0.7-0.9l6.4 1.8l0.6 2.9l2 1.5l0.1 2.1M137.7 24.7l2.8 0.6l5.8 0.2l2.8 2.2l-11.4 2.9l-5 2.1l-1.2 1.4l-7.7 1.5l0-1.4l-4.1-1.6l10.1-5.6l-0.5-1.8l8.4-0.5M173.5 20.6l4.8-0.4l-0.8 1.4l-2.7 1.5l-8.3 0.4l-7.1 1.3l-3.6 0.1l0.6-1l6.1-1.3l-10.9 0.3l-2.7-0.5l6-2.9l3-0.8l5.5 1l2.4 1.7l3.8 0.3l-0.6-2.8l3.1-1.1l2 0.3l-0.6 2.5M169.4 28.9l1.6 1.2l-1.8 5.2l6.2 3.1l-1.3 1.4l-4.2 0.2l0.7 1.2l-1.7 1.2l-7.7-1.4l-8.5 1.3l-11.2 0.8l-0.2-1.5l-2.7-0.9l-2.4 0.4l-1-2.5l13.1-1.3l-4.1-0.8l-8.8 0.2l-0.3-1.1l6.7-1.3l-3.7 0.1l-3.5-0.9l6.8-3.5l8-1.9l1.9 0.6l-2.4 1.5l6.1-1l2 1.6l4-1.6l1.3 1l-0.5 3.1l2.3-1.3l0.9-3.2l2.4-0.4l2 0.5M182.9 30l-1-2l3.9-1.5l2.4 0.7l4.5-0.4l-0.1 0.9l-3.3 1.4l2.6 1.4l-2.5 2.7l-4.8 1.2l-2.1-0.2l-0.8-1.2l-4.1-2.4l0.8-1l4.5 0.4M170.5 27.3l3.3-0.1l1.2 0.6l-3.7 2l-1.9-2.1l1.1-0.4M197.2 18l0.6 1.4l-4 3.7l-4.1 0.3l-2.1-0.5l1.5-1.7l-4 0.2l1.8-2.3l10.3-1.1M213 7.3l4.8-0.9l-0.3-0.6l5.2-0.1l1.3 1.3l6.2 1.1l0.1 1.7l1.9 0.9l-9.7 2.9l-8.5-0.2l-1.4-1.1l1-1l2.4-0.7l-4 0l-1.6-0.9l-0.1-1.2l2.7-1.2M226.3 4.1l10.9-1l4.2-0.8l2.5 0.1l1.5 0.6l3.1-1.2l7.3-0.6l13.8-0.3l14.2 0.5l7.6 0.9l-0.6 0.6l-14.1 2.2l4.7-0.1l-10.5 2.3l-5.4 2.1l-6.7 1l-6.9 0.3l2.8 0.4l-2 0.5l0.9 1.3l-12.6 3.7l-0.1 0.7l4-0.1l-0.5 0.7l-7.3 1.7l-5.4-0.8l-7.1 0.4l-7.4-0.5l0.8-1.3l4.8-0.7l0.5-2l1.6-0.2l5 1.2l-1.6-1.8l-3.2-0.6l2.7-1l4.5-0.7l1.5-0.9l-2.2-1.1l0.3-1.3l7.4 0.4l4.3-1l-12.4-0.1l-3-0.9l-0.7-1l-1.7-0.8l0.5-0.8M234.1 46.6l-2.2 1l-2.9 0.1l0.2-1.6l2.1-1.8l2.5-0.4l1.5 0.9l-1.2 1.8M185.8 40.1l0.7 1.2l-2.3 1.1l-2.7-1l-2.2 0.4l-2.4-1.5l5.5-2.3l3.4 2.1M238.5 107.3l1.1-0.3l3.5 0.9l2.5 1.5l-0.1 0.7l-1.5 0.1l-3.3-1.2l-2.2-1.7M237 117.7l0.5 1.8l4.7 0.4l-1.8 1.5l-1.1 0.2l-3.3-1.6l-0.4-1.2l1.4-1.1M226 124.7l0.2 1.2l-10.4 4.2l-2.2 2.2l-1.3 2.8l0.5 2l1.2 0.1l0-1.4l0.7 0.9l-0.5 1l-9.1 1.6l-2.8 1.1l4.6-0.7l0.7 0.7l-4.5 1.1l-1.9 0l0.2-0.5l-1.1 1.1l0.8 0.2l-1.4 2.7l-2.9 2.8l0-0.9l-1.3-1.2l0.1 2.1l0.6 0.6l-0.3 1.5l-3.8 4.4l1.3-2.7l-1.2-1.4l0.5-3.1l-1 1.6l0 2.4l-1.8-0.6l1.7 1.2l-0.7 3.6l0.8 0.2l-0.5 5.1l-2.6 2.8l-3.4 1.1l-2.5 2.3l-1.6 0.2l-1.9 1.4l-0.7 1.3l-3.9 2.4l-4.1 4.1l-1 2.6l0 2.7l1.2 5.9l-0.3 1.6l0.7 4.4l-0.9 4l-1.2 2.4l-1 0.4l-1.5-0.4l-0.2-1.7l-1-0.9l-2.3-7.6l1.2-2.5l-0.5-2.1l-1.8-3.1l-1-0.6l-3.6 1.7l-1.6-2l-1.7-0.9l-3.7 0.5l-2.6-0.4l-3.9 0.8l0.4 1l-0.4 1.5l0.5 0.8l-0.7 0.5l-1.1-0.6l-1.3 0.8l-2.2-0.2l-1.9-2l-2.8 0.5l-2.1-0.9l-4.8 1.2l-9.1 6.2l-1.1 1.7l-0.6 2.6l0.1 3.1M61 172l0.1-1.9l-1.2-2.2l-1.3-0.4l0-1.1l-1.6-0.2l-0.8-1l-2.7-0.4l-0.6-0.6l0.4-2.1l-1.5-3.8l-0.5-5.2l0.4-0.9l-1.8-4.4l0.9-3.1l-0.8-2l3.4-6.3l0.4-2.9l2.9-3.5l4-6.7l2.1-5l0.9-4.8l0.7-0.8l3.5 1.3l-0.3 3.5l1.2-1l1.8-6M8.5 78.4l1.6 0.3l0.2 1.1l-7.6 3l-0.6-0.9l1-1.7l5.4-1.8M61.9 89.6l-0.6-1.4l-1.7-1.1l1.5-3.1l-1.5-2.8l1-3.3l-6.6-0.3l-2.4-1l-2.7-3.6l-5.6-1.9l-4 0.3l-3.8-1.5l-1.9-1.5l-3.6 0.7l-1.5 2.4l-12.4 2.8l1.4-2l4.3-3.4l3.7-1l0.1-0.9l-15 6.7l0.4 1.6l-4.7 2.5l-7.8 2.5l-2 1.6l-5.8 1.8l-2.3 1.7l-4.5 1.5l-1.6-0.3l-10.6 3.4l-5.6 1l0.1-0.6l12.7-4.7l3.7-0.4l8.2-3.5l4.3-2l2.8-2.6l3.2-2l-4 1l-0.3-0.6l-2.6 1.3l-0.2-1.8l-1.8 1.2l0.5-1.7l-3.9 1.4l-1.7 0l3.4-3.3l-0.6-1.2l-4.1 0.6l-0.6-1.6l-1.1-0.8l1.9-1.9l-0.5-1.5l3-1.9l6.7-3.6l2.4-0.3l1.2 0.6l3.7-1.7l1.6 0.3l3-1l1.1-1.5l-0.8-0.6l3.2-1.3l-5 0.8l-1.6 0.7l-1.3-0.7l-4 0.3l-2.9-0.8l0.4-1.3l-1.1-1.9l12.4-3l2.1 0l-2.1 1.7l5.5-0.2l0.1-2l-1.7-1.2l0-1.6l-0.8-1.4l-2.3-1l3.4-1.7l4.5-0.1l4.7-1.5l2.4-1.5l4.3-1.5l9-1.8l2 0.2l5.6-1.6l2.9 0.6l0.2 1.4l1.8-0.6l3.8 0.2l-0.9 0.7l3.1 0.6l2.9-0.3l9.9 1.7l3.7-0.5l5 1.3M578.4 137.2l-0.4-0.9l0.4-1.6l-0.8-1.3l-3.7-1.3l-1.9-3.3l-1.9-0.9l-0.3-1.3l2.9 0.4l-0.4-2.7l2.3-0.6l2.7 0.5l-0.3-3.6l-1-2.2l-2.9 0.1l-2.6-0.9l-5.6 2.4M880.2 304.5l11.5 4.7l3.8 3.8l0.4 2.3l5.2 2.3l0.7 2l-3.1 0.4l0.5 2.5l2.7 2.5l1.7 4l1.9-0.2l-0.3 1.7l2.4 0.6l-1.1 0.7l3.3 1.6l-0.5 1.1l-2.2 0.3l-0.7-1l-5.9-1l-3.8-4.5l-1.4-3.2l-4.1-1.7l-4.9 2.3l0.1 2.8l-2.6 1.3l-1.8-0.6l-3.3-0.2M917.8 308.5l1.2 1.2l0.3 1.9l-1.1 1l-1.1-3.6l-3.2-2.9l-2.3-1.1l0.9-0.9l4.1 2.8l1.2 1.6M913 316.7l-3.5 1.8l-1.8 0l-4.3-2.2l0.3-1.1l2.9 0.5l1.8-0.3l0.6-1.8l0.5-0.1l0.2 2l1.8-0.3l2.9-2.6l-0.2-2.2l1.9-0.1l0.6 0.6l-0.1 2.1l-1.3 2.3l-1.7 0.3l-0.6 1.1M924.4 314.8l3.7 4.5l-0.5 1.1l-1 0.3l-1.2-1.4l-1.3-2.4l-0.5-2.9l0.5-0.3l0.3 1.1M878.7 329l-2.6-3.1l-3.2-0.7l-0.9 1l-4.1 0.1l1.6-3l2.1-1.1l-0.5-4l-1.4-3.2l-6.1-3.2l-2.6-0.3l-4.7-3.5l-1.1 1.8l-1.2 0.4l-0.7-1.4l0-1.6l-2.4-1.9l3.5-1.3l2.4 0l-0.3-1l-4.7 0l-1.3-2.2l-2.9-0.7l-1.3-1.9l4.4-0.9l1.6-1.2l5.2 1.6l1.3 7.4l3.3 2.3l2.8-4l3.8-2.3l2.9 0l5.1 2.7l3.5 0.7M827 330l-2.4 2.8l-2.8 0.9l-0.4-0.5l2-3.6l3.4-1.4M857.3 320.6l-0.1-2.8l1.4-2.6l0.7 1.1l-0.1 1.8l-1.9 2.5M804.9 279.2l-1.7 3.4l2.5 3.5l-0.5 1.8l3.6 3.4l-3.8 0.5l-1.1 2.5l0.2 3.4l-3.2 2.6l-0.1 3.8l-1.5 5.7l-0.4-1.3l-3.8 1.7l-1.2-2.3l-2.3-0.3l-1.6-1.2l-3.9 1.4l-1.1-1.8l-4.8-0.2l-0.4-5.1l-1.6-1l-1.5-3.2l-0.5-3.3l0.4-3.5l1.9-2.5M842.4 305.3l3.5 1l1.1 2.9l-2.7-1.5l-6.7-0.2l0.8-2.1l4-0.1M834.2 309l-2.2-0.7l-0.6-1.6l3.3-0.2l0.7 1.2l-1.2 1.3M837.8 286.6l0.3 2l1.9 0.3l0.3 1.6l-0.1 3.3l-1.7-0.4l-0.5 2.3l1.3 2l-0.9 0.4l-1.3-2.4l-1-4.8l0.6-3l1.1-1.3M821.6 291.4l3.7-0.1l3.2-2.8l0.6 0.9l-2.6 3.7l-2.4 0.7l-3.1-0.7l-8.3 0.7l-0.5 2.9l2.9 3.3l1.8-1.7l6.1-1.3l-0.3 1.8l-1.4-0.6l-1.5 2.2l-2.9 1.5l3 4.8l-0.6 1.3l2.7 4.3l-0.1 2.5l-1.8 1.1l-1.2-1.3l1.7-3.1l-3.3 1.5l-0.7-1.1l0.5-1.4l-2.3-2.2l0.4-3.7l-2.2 1.1l0 9.8l-2.1 0.5l-1.4-1.1l1.1-3.4l-0.3-3.6l-1.4-0.1l-0.9-2.5l1.4-2.5l2.8-10.2l2.8-2.8l2.5 1.1l4.1 0.5M811.2 333.3l-4.1-2.6l3.1-0.8l2.6 2.3l-0.3 1l-1.3 0.1M815.1 326.8l2.2-0.3l3-1.3l-0.6 2l-5 1.1l-4.2-0.5l0.1-1.3l2.6-0.8l1.9 1.1M805.2 326.2l2.1-0.3l0.6 1.6l-7.8 1.2l1.3-2.2l1.8 0l0.9-1.3l1.1 1M774 318.9l0.4 1.3l6.2 0.4l0.8-1.6l5.9 1.8l1 2.5l4.8 0.7l3.9 2.2l-3.9 1.4l-3.4-1.5l-6.3-0.2l-6.6-2.1l-2.4-0.4l-1.3 0.5l-5.8-1.5l-0.5-1.6l-3-0.3l2.5-3.6l3.9 0.2l3.8 1.8M761.3 298.8l0.5 2.6l1.1 2.1l2.4 0.3l1.5 2.4l-0.9 4.7l-0.4 5.8l-3.6 0.1l-2.6-3.1l-4-3.1l-3.7-5.4l-4-8l-2.8-3.2l-2.2-6.1l-3-2.4l-1.8-3.2l-6-6.3l-0.4-1.9l7.2 0.9l10.6 11.8l3.3 0.1l2.7 2.6l1.9 3.1l2.5 1.7l-1.3 3.1l1.9 1.3l1.1 0.1M230.1 492.2l3.9 4.3l4.4 2.1l4.2 0.9l-0.7 1.8l-2.5 0.2l-1.9-1.3M242.9 422.6l0.2 2l4.4 3.2l0.1 2.6l2.1 1.7l0.2 1.8l-2 4.9l-4.1 2l-5.9 0.8l-3.3-0.4l1.1 2.2l0 2.8l0.9 1.9l-1.5 1.3l-2.9 0.6l-3.2-1.4l-0.9 1l1.3 3.7l2.3 1.1l1.3-1.2l1.4 2l-2.5 1.1l-1.8 2.4l0.4 5.7l-2.8 0l-1.7 1.9l-0.1 2.8l3.6 2.7l3 0.7l-0.1 3.3l-2.7 2.1l-0.6 4.2l-2.1 1.5l-0.6 1.7l2.1 3.7l2.6 2.1l-1.2-0.2M237.5 500.2l-0.4 1.5l-1.9 1l-8.6-1.9l-7.8-3.9l-5.3-4l11.5 4.4l0.9-1.6l0-2.5l2-1.5l2.2 0.5M229.9 490.9l-2.6 0l-3.1 2.2l0.8 3.3l-1.2 0.1l-3.5-1.1l-8.4-4.6l-1.7-2.3l0-2.1l-2.3-2.4l-2.5-6.2l0.1-3.5l2.1-2.9l-4.7-1.1l1.7-3.2l-0.9-6.2l3.7 1.3l-0.7-7.7l-2.2-1l0.4 4.7l-2-0.5l-1.4-12.3l0.7-2.6l-3-7.9l1.2-0.1l1.5-17.8l-1.8-5.7l0.3-3.1l-1.2-4.7l1.1-4.6l-0.8-23.6l-2.2-11.5M462.3 317.6l-0.5-1.1M580.3 251.8l4.2-1l1.5-1.3l1.2 0l0.1 5.2l-1.4 5.4l-3.3 9l-2.6 5.6l-6.5 9.3l-11.1 9.6l-3.5 4.6l-1.5 2.9M557.4 301.1l-2.3 1.5l-0.8 1.5l-1.2 0.3l-0.5 2.6l-1.1 1.6l-0.7 2.5l-1.3 1.2M539.3 211.9l1.3 3.7l-0.6 0.7l2.1 8.4l3.1 2.3M192.9 226.8l-2.1-0.6l-3.4 0l-1.6 0.7l-1.6-1.2l0.4-1.2l5.3 0.8l1.3-0.8l-1.3-1.7l0.2-1.4l-2-0.6l0.9-1l4.6 0.7M193.6 220.5l0.4-0.6l2.5 0l1.8 1l0.9-0.1l0.4 1.3l1.8-0.1l-0.3 1.2l1.4 0.1l1.5 1.4l-1.4 1.5l-1.4-0.8l-2.5 0l-1.9 0.9l-0.4-0.9l-1.1 0.5l-1.6 2.6l-0.8-0.6l0-1.1M625.5 6.3l4-0.6l5.7 1.3l7.8 2.5l2 2.4l-4.5 0.4l-11.7-1.9l-3.6-1.9l-3.5-0.5l3.8-1.7M650.3 10.8l7.3 1.6l0.5 1.1l-11.7 1.1l0.6-3.6l3.3-0.2M741.6 19.7l6.2 0.1l10.3 1.6l0.8 2.2l-8.7-0.1l-3.1 0.7l-6.8-1.9l-1.1-2l2.4-0.6M766.1 22l6.8 0.8l-1.2 1.2l-4.1-0.3l-5.7-1.1l-0.6-1l4.8 0.4M753.4 28l0.9-1.2l2.7-0.3l4.6 1.2l1.2 0.8l-9.4-0.5M520.1 7.4l7.3-0.5l0.8 0.7l2.7-1.1l3.5 0.6l-7.6 1.8l-2.7-0.6l0.9-0.9l-4.9 0M476.7 90.9l0.5-1.6l3.7-1.1M548.5 26.8l4.5-2.6l-1.3-1.4l11.1-3.4l7.4-0.6l3.3-1l4.2-0.4l2.3 1.1l-1.1 0.9l-13.6 2.9l-5.9 2.8l-4.6 5.9l1.6 2.6l5.7 2.6l-9.5-0.2l-1.1-1.4l-4.7-0.8l-1-1.7l2.2-0.6l-0.8-1.7l3.6-2.6l-2.3-0.4M819.8 93.5l3.4 3.4l2.5 3.6l10.8 10.1l-5-1.2l1.6 5.2l5.2 3.8l1.4 2.6l-3.5-2.2l-0.2 2.8l-2.4-3.1l-8.9-15.1l-4.1-3.6l-3.2-4.9l1.4-1.6l-2.3-1.7l0.8-0.5l2.5 2.4M564.9 120l-0.8 2.2l-2.8 0.6l-2.1 3.8l3.3 3.6l0.2 2.5l4 4.4M540.1 131l-4.2-3.1l-3.6-1.4l-2.8-2.2l2-0.6l2-3.1l-1.9-1.5l4-1.5l-0.2-0.8l-2.5 0.6M497 73.2l2.7-1.9l-3-1.6M498.7 39.8l2.3-1.1l4.4 2l7 0.7l10.3 3.6l2.4 1.6l0.7 2.1l-2.3 1.7l-3.9 0.9l-11.9-2.5l-1.8 0.4l4.7 2.4l1.5 4.9l5.7 1.9l0-1.6l-1.9-1.4l1.3-1.3l6.7 2.1l2-0.8l-2.4-2.4l5-3.2l2.4 0.1l2.7 1.2l0.8-2.3l-2.6-1.9l0.6-1.9l-2.4-2l7.2 1l2 1.8l-3 0.4l0.6 1.8l2.3 1.1l3.7-0.7l-0.1-2l12.4-4.3l1.9 0.1l-1.7 2l3.2 0.3l1.3-1.1l4.7-0.1l3.1-1.3l3.6 1.9l1.9-2.1l-3.3-1.8l0.8-1.1l7.7 1l14.5 4.6l0.8-1.7l-3.3-1.6l-0.4-0.7l-3.1-0.3l0.1-1.5l-3.1-3.5l3.1-2.8l0.1-2.8l1.4-0.6l6.8 0.8l1.4 1.7l-0.9 2.5l2 1l2 2.2l1.7 4.3l3.7 2l0 2.2l-2.7 4.6l3.2 0.4l0.4-1.1l2.4-0.9l-0.2-1.6l1.4-1.5l-2.4-1.8l0.1-2.2l-2.9-0.2l-1.5-1.8l0.3-3.2l-4.5-2.5l3.1-2.1l-1.8-2.2l1.2-0.1l2.2 1.8l0.7 2.9l2.9 0.6l-2.3-2.2l3.3-1.2l4.8-0.2l5.5 1.8l-3.7-2.6l-2.2-3.3l3.7-0.6l10.6-0.2l-3-1.6l1.3-2l2.6-0.1l3.4-1.4l5.8-0.4l0.2-0.8l5.8-0.3l2.4 0.7l3.9-1.6l4.2 0.1l-0.5-1.3l1.1-1.2l4.2-1.2l4.8 0.9l-2.4 0.8l5.6 0.4l1.9 1.4l1.5-0.7l6.7 0l9.4 2.6l0.9 1.5l-6.3 2.5l-1 0.9l7.4 1.2l1.6-0.6l3 2l0.3-0.8l3.3-0.5l8.1 0.5l1.9 1.4l10.3 0.5l-2.1-2.3l9.3 0.5l5.4 1.6l3.1 2l-0.2 1.2l5.4 2.5l5 1.3l-0.8-3.3l5.2 1.4l3.3-0.8l5.6 0.9l0.9-0.9l4.4 0.5l-4.8-2.9l1.8-1.3l23.8 2l4.1 1.8l9 2.4l9.1-0.6l5.4 0.5l3.5 1.3l2.4 2.3l4 0.9l2.6-0.6l9.6 0.5l4.2-0.3l7.7 2.8l1.8-1l-4.4-2.1l-0.6-1.4l8.9 0.9l4.8-0.2l9 1.5M-22.1 41.7l3 2.5l2.7 3.2l-2.6 2l0.7 0.8l2.2-2.3l6.3 0.4l1.4 3.1l-4.1 1.4l-4.5 0.4l-3.7 3.2l-1.8 0.7l-2.3-0.1l-0.7-1.2l-2.3-0.9l1.1-1.5l-2-0.5l-3.4 0.4l0-1.1l2-1.3l-4 0.8l-0.6 1.6l-3.1 1.4M882.4 54.7l-1.6 1.4l-3.6-0.2l11.2 5.4l1.9 1.4l0.3 0.9l-5.7-0.7l-4.5 2.5l-1.9 0.4l-3.3 4.5l0.6 1.5l-6.2-2.3l-4.2 2.7l-2.5-1.3l-1.1 1.5l-4-0.5l1.3 2.2l-0.1 3.4l1.4 1.4l3.7 0.8l4.3 5.1l-2.5 0.1l1.4 3l2.5 1.5l-3.3 1.8l2.3 4.1l-3.4 0.8l2 3.7l-1.5 3.4l-16.1-15.7l-2.8-4.9l0.5-2.1l-1.3-1.6l3.5-0.8l2.1-7.8l2.1-2.8l-2.7-4.7l-2.9 0.3l1.3 2.7l-3.1 3.8l-6.2-4.2l-5.7 1.1l-1.3 5.8l4.1 2.1l-9 1.2l-2-2.5l-4.6-0.5l-1.8 1.7l-8.7-0.6l-8 1l-7.7 15.1l4.7 0.5l2.9 2.2l3.2 0.8l0.6-1.8l3.2 0.2l6.8 4l2.2 3l0.3 3.6l2.6 4.4l2.5 5.8l-1.1 5.3l0.5 2.6l-3.9 10.8l-2.8 2.1l-1.8 0.1l-2.8-1.8l-2.6 2.7l0.2 1.2M-11.7 33.7l2.6-0.1l2.3 0.9l-4.3 1.1l-3.4 0.2M856.6 36l-1.7-1M524.4 122.5l1.6 1.2l2.9-0.2l-0.3 1.3l-3.2 0.6l-3.6 2.2l-1.8-0.8l0.4-1.7l-3.3-1.1l0.4-0.7l2.6-1.3l-0.5-0.4M174.4 193.8l3.6-0.2l-0.1 1l-3.5 0.6l0-1.4M178.3 192.8l2.2 1.7l-1 2.7l-0.5-0.5l0.4-2l-1.1-1.9M175.9 199.7l0.9 0.2l0.6 3.1l-0.3 2.2l-0.8 0.2l-0.5-2.2l-1-1.1l1.1-2.4M250.1 489.3l2.7-2.1l2.7 0.9l1.3-1.5l2.7 1.6l-0.5 1.3l-3.5 1.1l-1.6-1.3l-2 1.6l-1.8-1.6M455.7 9.8l0.7-0.9l3.2-0.1l10.7 2.9l-5.4 1.1l-0.9 2.1l-1.9 0.5l-0.7 2.4l-2.8 0.1l-5.1-1.8l1.9-1l-3.4-0.8l-4.7-2.3l-1.9-2.2l5.8-0.9l1.4 0.9l3.1 0M451.9 75.4l-1.9-2.1l-5.1 4l-3.6 0.8l-3.8-1.8l-1-3.7l-1.1-7.9l2.3-2.1l6.7-2.9l4.9-3.4l9.8-10.9l10.2-6.4l5.2-1.4l4 0.2l3.3-2.6l4.4 0.1l4.2-0.6l8.1 2.3l-2.9 0.9l3.1 1.9M482.5 8.8l-2.9 1.4l-6.3 0.3l-6.6-0.4l-0.6-0.8l-3.2 0l-2.6-1.2l6.6-0.8l3.3 0.7l2-0.8l10.3 1.6M478.1 14.8l-4.8 1.1l-4.1-0.6l1.4-0.7l-1.6-0.9l4.6-0.6l1.1 1.1l3.4 0.6M323.3 2.3l8-1.4l7.3 0.1l3.2-0.8l24 0.1l12.4 1.8l-4.1 0.9l-19.8 0.3l0.9 0.5l7.7-0.3l6.1 0.8l4.4-0.7l1.6 0.9l-2.8 1.4l16.4-1.9l6.3 0.5l1 1.1l-10.4 2.4l-7.1 0.4l5 0.2l-5.1 3.7l-0.5 3.1l2.4 1.9l-3.6 0.1l-3.9 0.9l4 1.5l0.1 2.5l-2.5 0.3l2.6 2.6l-5.3 0.2l2.5 1.2l-0.9 1.1l-6.7 0.5l2.6 2l-0.2 1.4l-4.5-1.3l-1.4 0.9l3.1 0.7l2.8 1.9l0.5 2.5l-4.4 0.7l-4.3-3.1l0.4 2.2l-3.1 1.6l9.7 0.3l-14.2 5.3l-10.2 1.1l-2.9 1.3l-4.3 3.4l-5.9 2.3l-9.3 1.7l-2.7 2l-0.6 2.4l-1.9 2.1l-4.9 2.7l0.3 2.7l-4.1 6.1l-3.8 0.2l-3.2-2.8l-5.2 0l-2.1-1.9l-0.7-3.3l-3.2-4.1l-0.6-2.2l0.7-3l-2.5-3l1.8-2.4l-1.3-1.2l3.9-3.7l4.1-1.2l1.5-1.4l1.4-2.4l-7.1 2l-2.6-1l0.7-2.2l1.6-1.6l6.9 0.7l-5.2-3l-2.5 0.4l-1.7-0.7l3.8-2.9l-3.3-6.5l-2.4-1.1l0.7-1.3l-5.4-1.7l-16.7 0.1l-4.9-2.7l11.2-1.1l-9.3-0.7l-4.3-1.1l1.1-1.1l18.4-2.7l1.5-0.9l-5.2-1l2.7-1l12.2-2.1l0-1.1l12.4-1l6.6-0.1l1.8 0.8l6.5-1.3l11.4 1.9l-4.3-1.4l0.9-1M620.1 477.6l1.5 1.2l2.5 0.4l-1.4 2.4l-4.5 0.2l1.9-4.2M826.8 328.2l0.4-0.9l2.9-0.9l3.3-0.6l1.2 0.5l-7.6 3.7M525.3 395.5l-1.5 5.9l-1 1.7l-2.9 2.5l-4.5 6.6l-6.1 6.1l-2.5 1.8l-4.9 1.6l-0.5 1.1l-1.8-0.6l-1.6 0.7l-3.2-0.7l-3.2 0.3l-5.9 2l-2 1.5l-1.4 0.1l-1.2-1.4l-1 0l-1.3-1.7l-0.1 0.5l-0.3-3.2l-0.8-2.6l1-0.7l0.1-2.9l-5.4-11.7M116.7 197.2l-3 6.1l-1.8 6.9l1 6.8l1.6 2.8l1.4 4.1l3.3 1l1.1 1.5l10-2.7l2.3-1.6l2.5-6.4l5.8-1.9l4.8-0.2l0.6 0.8l-0.4 1.8l-2 2.3l-1.1 2.3l0.5 0.6l-1.9 4.6l-0.7-1l-0.7 0.1M125.6 240l-4.6-5.2l-2.5-1l-6.3 2l-12.9-5.7l-3.1-2.8l-4.9-1.4l-1-1.7l-3.1-2.2l-1.7-4.2l1.2-0.4l-0.2-1.1l0.9-0.9l0.3-1.3l-1.4-5.1l-2.1-3.8l-2.5-3l-1-2.3l-2.4-1.6l-0.3-0.9l1-2.3l-2.8-2.7l-0.1-2.7l-1.6-0.3l-2.3-3.8l-0.9-7l0.4-1.4l-1.7-1.5l-1.1 0.1l-1.5-1l-0.9 1.5l-0.6 4.7l2.9 5.3l0 1.3l0.6 0l0 2.4l1 2.3l1.5 1.9l0.2 3.6l1 3.4l-0.3 2l1.5 0.1l1.7 3.4l-0.2 0.7l-2.2 1.4l-0.4-2.3l-1.5-2.2l-3.3-2.8l0.7-4.8l-2.9-2.9l-0.6 0.5l-0.5-1l-1.7-0.9l-1.3-2.2l1.6 0l1.5-1.5l0.6-1.7l-1.7-2.7l-1.5-1l-1.6-11.3M258.4 422.1l-1 2.4l-3.1 2.1l-2.4-0.8l-1.6 0.4l-3.1-1.6l-2 0.1l-2.3-2.1M254.6 279.1l1.1-0.2l2.5 8.7l1.8 0.6l0.1 2.6l-2.5 3.1l1 1.1l5.8 0.6l0.1 3.8l2.4-2.5l9.5 3.7l1.6 2.2l-0.5 2l3.8-1.1l6.3 2l4.9-0.2l4.8 3.1l4.2 4.2l2.5 1.1l2.8 0.2l1.2 1.2l1.8 7l-1.2 6.2l-6 7.7l-1.9 4.3l-2.2 3.3l-0.8 0l-0.8 2.8l0.5 7.1l-0.8 8.3l-0.9 1.5l-0.2 5l-2.9 4.9l-0.3 3.9l-2.5 1.7l-0.5 2.2l-3.5 0l-4.8 1.5l-2.1 1.7l-3.4 1.1l-3.5 3l-2.3 3.7l-0.1 2.9l0.7 2l-0.6 5.7l-2 2.1l-2.6 6.7l-4.1 4.7l-0.9 3.6l-1.7 2.2M197.3 363.8l-3.4-2.2l-0.5-1.5l-6.7-3.8l-8.8-6.5l-1.7-3.1l0.5-1.1l-3.1-4.9l-9.8-18.9l-5-4l1-1.7l-1.7-3.6l0.9-2.6l2.6-2.4M166.2 289.5l-0.5-1.1l1.2-0.3l-0.1-1.9l0.8-1.4l1.6-0.2l2.7-4.3l-1.1-0.9l0.6-2.2l-0.6-3.5l0.7-0.9l-0.4-3.2l-1.2-2M171.9 262.1l1.7 0.1l2.5-2.6l1.4-0.4l0.9-4.4l2-1.7l2-0.1l0.3-0.8l2.5 0.3l4-2.7l1.7-1.8l1.1 0.2l0.8 1l-0.7 1.2M169.9 267.6l-1-1.1l-0.6-2l0.8-1l-2.9-2.6l-1.4 0.2l-0.7 1.4l-2.1 1l-0.3 0.8l1.4 2.1l-1.4 1l-1.5 0.2l-0.5-2.3l-0.4 0.7l-1.1-0.2l-0.6-1.6l-3.5-0.6l-0.1 0.8l-0.4-0.6M155.3 258.8l1.1 1.3l-0.2 0.8l1.7-0.1l0.8 0.9l5-2l1.2-1.1l1.8 0.2l-0.2 0.4l3.2 0.8l2.2 2.1M153.6 263.8l-1.7-0.8l-0.6-0.8l0.3-1.5l-3.1-2.1l-0.1-1.1l-0.8-0.7l0.1 1.1l-0.7 0.9l-0.7-1l-1-0.4l-0.4-0.8l0.6-2.3l-0.8-0.5l0.8-0.8M152.1 253.6l0.6 2l2.6 3.2M145.5 253l-5.8-6.8l0.4-0.6l0.8 0.3M155 238.3l-0.5 1.2l0.2 1.4l-1.4 2.8l-0.2 4.3l-0.5 0.4l-0.3 2.6l-0.8 1l0.6 1.6M140.9 245.9l-0.5-1.2l-0.9-0.3M139 235.6l1.1-0.6l3.2 0.4l1.5 0l1.5-0.9l1.7 0.5l1.5-0.5l1.9 0.7l3.6 3.1M139.5 244.4l-0.5 0.9l-1.8-0.1l-4.2-1.3l-0.8-0.8M136.8 235l1 0.6l0.3-0.5l0.9 0.5M132.2 243.1l-3.6-0.8l-3-2.3M140 225.1l0 0.6l0.6 0l-1.7 6.8l-2.1 2.5M192.1 250.4l-0.2 0.9l-1.9 0.5l0.9 1.7l-0.1 1.9l-1.6 2.2l1.1 3l1.4-0.2l0.9-2.7l-1-1.4l0-2.8l4.2-1.6l-0.4-1.7l1.3-1.2l0.9 2.6l2.3 0.1l2 2.1l0 1.2l6.4-0.3l1.7 1.7l2.5 0.4l1.9-1.1l0.1-1l7.9-0.3l-2.8 1.1l1 1.8l2.5 0.3l2.4 1.9l0.4 3l1.7-0.1l1.2 0.9M228.8 263.3l2.1 1.4l1.9 2.4l0 1.9l1.2 0.1l3 3.2M237 272.3l3.8 0.7l0.4-0.7l2.6-0.2l3.5 1M247.3 273.1l3.4 1.3l3.4 3.2l0.5 1.5M444.2 130.1l-2.6 2.1l-5.9-1.1l-4.2 1.3l-0.4 2.2M416.7 131.1l1.5-2.3l0.6-7.4l-5.1-5.7l-4.3-1.4l-0.3-2.7l3.8-0.8l4.8 1l-0.9-4.2l2.7 1.6l6.6-2.8l0.8-3l2.5-0.7M448.2 134l1.9-1.4l0.6 3.2l-0.9 2.9l-1.4-0.8l-0.8-2.5l0.6-1.4M161.6 307.5l1.7-2.8l-0.8-1.6l-1.2 1.7l-2-1.6l0.7-1.1l-0.6-3.4l1.1-0.6l1.9-4.7l-0.3-1.6l4.1-2.3M210.4 225l1.6 0.4l0.5 0.7l-0.9 1l-4.3 0.1l0-1.6l0.5-0.6l2.6 0M174.3 225.1l2.2 0.4l1.5 0.9l0.5 1l-2.3 0.1l-1 0.6l-1.8-0.6l-1.6-1.4l0.5-0.8l2-0.2M161.8 207.4l5.2 0.3l2.8 1.3l1 1.4l3-0.5l5.2 5l2.8 0.7l-0.4 1.1l2.4 0.1l2.2 1.6l-0.5 0.8l-2.2 0.5l-8.9 0.3l2.4-2.1l-1.2-1l-2-0.3l-1-1.1l-0.4-2.1l-1.8 0.1l-3.7-1.8l-4-0.5l-1-0.8l1.3-0.9l-3.1-0.2l-2.6 1.9l-1.3 0.1l-0.6 0.9l-1.6 0.4l-1.3-0.3l4.3-3.4l5-1.5M473.3 402.4l-2.2-2.8l-1.1-2.8l-2.1-12.2l-0.3-6.6l-2.8-4.7l-2.2-6.9l-2.6-3.7l-0.1-2.9M368.5 243.6l-1.3-2.9l-1.6-1.4l1.5-0.7l2.4-4.6M368.5 248.2l-0.5-2.9M369.5 234l-0.3-2l1-1.9l0.4-3.5l-0.5-5.6l0.3-1.9l-0.8-1.8l-1.6-1.6M431 271.2l-2.6 0.4M449.9 276.8l-3.4 1.3l-1.2-0.2l-1.3 0.9l-2.6-0.1l-1.7-2.3l-1.1-2.8l-2.3-2.4l-5.3 0M453.6 286.1l0.5-2.9l-1.3-2.5l-1.5-0.6l-0.6-1.7l-0.9-0.6l0.1-1M428.4 271.6l-2.7 0.8M425.7 272.4l-9.8 4.6l-2.9-1M413 276l-5.8-0.7l-3.8 0.7l-6.1 2.3M379.4 261.3l-2.6-3.7l-1.6-1.3l-0.4-1.6l-1.4-1.5M373.4 253.2l-1.7-1.6l-1.3-0.2l-1.9-3.2M397.3 278.3l-0.9 0.1l-3.3-1.8l-7.9-7.4M385.2 269.2l-3.2-1.8l-1.6-2l-1-4.1M461 313.7l-2.7-4M458.3 309.7l-5.5-6.9l-1.9-3.9l2.2-8M453.1 290.9l-0.6-0.5l1.1-4.3M552.6 333.5l0.5 1.7l-0.1 12.9l0.4 1.9l-1.1 2.7l-1.3 2.6l-2.2 2.3l-6.7 3.3l-8.9 8.3l-0.4 2.7l1.4 2.9l0.4 3.3l0.6-0.2l-1 5.5l0.7 0.6l-0.6 1.6l-1.4 1.3l-6.6 3.4l-1.5 1.4l0.2 1.6l0.8 0.2l-0.5 2M461.8 316.5l-0.8-2.8M459.9 359.8l-0.3-2.3l1.9-8.4l1.9-5l2.9-4.1l0.4-2.8l-0.2-2.1l-2.5-5.9l1.2-2.3l-1.6-6.1l-1.7-2.4l0.4-0.8M528.5 177l0.7-1.2l1.2-5.9M530.4 169.9l2.1-5.9M582.1 341.6l1.4 4.1l0.3 4.5l0.7 1.8l-0.4 1.8l-0.7 1.1l-0.9-2.2l-0.7 1.1l0.4 2.8l-0.3 1.6l-1 0.9l-0.4 3.2l-9.7 26.4l-5.5 2.5l-4.1-2.3l-1.5-8.4l-0.1-2.7l0.8-2.7l1.5-0.7l0.1-1.3l1.7-2.8l0.5-2.4l-1.1-4.2l0-3.5l1.2-2.1l0.6-2.4l6.1-1.6l4.7-4.5l1.1-1.9l-0.3-1.6l1.3 0.5l1.9-2.6l0.2-2.3l1.1-1.7l1.1 1.6M368 245.3l0.5-1.7M447.9 155.4l3.2-1.6l2.2 0.5l-0.1 1.9l2.6-1.4l0.2 0.7l-1.5 1.9l0.1 1.7l1.1 1l-0.3 3.2l-2 1.9l0.7 2.1l1.5 0.1l0.9 1.8l1.2 0.5M415.7 162.1l2.9-2.1l3.3-0.7l1.9-1.5l3-1.2l10.1-0.9l1.6 0.5l2.8-1.5l3.2 0l1.3 0.9l2.1-0.2M531.2 184l-0.1-0.5M585.2 203.4l0.6-0.2l0.2 1l2.4-0.6l4.5 0.3l5.7-7.4M599.4 197.8l0.7 3M582.6 201.5l-0.5-2.8l0.6-2l0.8-0.4l1.1 1.2l0.3 2.2l-0.4 2.2M571.5 181.7l2 5.4M573.4 181.9l-1.9-0.2M600.1 200.8l1.8 2.6l1.9 1.4l4.3 1.2l2.7 3.4l1.2 0.5l0 0.8l-3.4 7.1l-1.5-0.2l-0.6 0.9l0.1 4.9l-1.5 0l-1.9 1.4l-0.1 1.9l-0.7 0.8l-2-0.1l-1.2 1l0.2 1.5l-1.5 1l-1.8-0.3l-2 1.3l-1.5 0.2M598.6 196.5l0.8-1.2l0.4 0.3l-0.4 2.2M959.1 354.5l1.6 2.2l-1.2 0.5l-0.7-1.7l0.3-1M957.9 353.7l0.3-4l1.3 1.2l-0.1 3l-1.5-0.2M759.5 255.3l-2.8-0.6l-3.5-5.8M753.2 248.9l-3-1.7l-2.8 0l0.2-2.9l-2.8 0l0.1 4.1l-2 8.9l0.4 2.7l2.2 0.1l2.3 6.7l1.9 2.2l2 0.4l1.8 1.9M746.8 270.4l-1.4-1.4l-0.6-1.9l-3.6-3.9l-0.3 2.2l-0.8-2.1l0.9-5.9M741 257.4l-0.6-2.8l0.8-2.9l-1.3-2.2l-0.2-4.1l-1.5-2l-2.7-9.2l-1.8-3.2l-5.2 4.6l-3.9-1.2l0.5-4.7l-1.1-3.5l-3.2-4.4l0.2-1.3l-1.9-0.5l-2.7-3.1M765.7 213.6l-3.7 3.2l-2 3.6l-0.3 2.6l6.8 8.9l3.3 2.3l2.3 3.1l2.4 6.9l0.3 6.7l-5.9 4.9l-2.4 3.1l-3.8 3.5l-1.3-2.4l0.7-2.6l-2.6-2.1M810.3 135.5l-1.3-0.2l-0.9 2.6l1.3 2.7l-1.1 0.8l-0.9 1.7l-1.7 0.7l-0.8 1l0.4 2l3.9 2.3M804 152.3l-1.8-0.7l0 0.7l-0.8 0.3l-0.4-0.7l-2-0.9l0.2-1.7l0.5-0.4l-0.6-0.7l-0.1-2l-0.4-0.6l-3.8-1.5M809.2 149.1l6.3 6.9l1.7 4.3l-0.3 2.1l-2.5 0.7l-1.8 1.6l-2.7 0.3l-1.1-2.1l-0.5-2.8l-2.9-3.9l2-0.6l-3.4-3.3M704.9 211.7l-0.2 1.3l-6 0.8l0.6 2.8l-1.3 2.3l-4.3 2.5l-3 4.4l-5 4.9l0.2 1.7l-4.3 2.3l-1.4 0.2l-0.7 2.9l1.6 8l-1.1 3.6l0.4 6.4l-1.6 0.2l-1.3 2.8l1 1.3l-2.9 1l-0.9 2.6l-1.3 1.1l-3.2-3.5l-3.3-9.1l-3.2-5.4l-2-7.1l-3.4-5.1l-3.5-12.2l-0.5-4.5l-1.1-3.6l-4.4 2.3l-2.3-0.5l-4.7-4.6l1.4-1.3l-1.1-1.5l-4.2-3.2M716.4 216.9l-2.7-5.7l-1.7-2.2l-2.9-0.2l0.5 1.6l-0.6 2.1l-1.5-0.8l-0.3 0.7l-2.3-0.7M637.9 205.5l-2.4-1l-1.3-2.7l-2.9-2.9l-15.1 1.3M585.8 154.4l-1-2.7l-0.3-3.9l-2.6-1.3l0.3-2.5l-2-0.3l0-3.1l3 0.9l2.4-1.2l-2.6-2.3l-1.3-2.1l-2.2 1l0.3 2.7l-1.4-2.4M569.8 150.2l1.4 2.8l3 0.7l2.4 1.9l4.5 0.7l4.6-1l0.1-0.9M616.2 200.2l-13.3-2.5l-1.9-4.6l-1.6-0.7l-2.3 0.7l-2.9 1.8l-4-1.2l-3.5-2.9l-3.2-1.1l-5.4-8.7l-1.6 0.7l-2.2-1.3l-0.9 1.5M532.5 164l-0.6-2.9l0.6-1.5M482.9 51.3l-4.3 0.9l-2.1 2.3l0.7 2l-8.4 5.6l-1.4 4.8l2.1 2.4l2.7 1.9l-2 3.8l-2.7 0.8l-0.5 5.9l-1.2 3.3l-3.4-0.4l-1.3 2.8l-3.2 0.2l-1.1-3.3l-4.9-8.9M532.9 117.4l-2.3 0.3l-1.7 1.2l-2.7 0.2l-2.3 1.4l0.5 2M519.6 121.6l-5.1-1.3l-0.3-1.4l-2.7 0.4l-2.7 4.8M461.6 93.3l9.3-3.9l2.9 0.6l0.3 0.9l2.6 0M508.8 124.1l0.2 1l-1.3 0.8l-1-0.4l-0.3 4.5M480.9 88.2l-1-3M479.9 85.2l-0.2-2.6l1.1-2.2l2.4-1.2l2.5 2.6l2.2-0.1l0.1-2.6M488 79.1l0.1-2.1l-1 0.4l-1.8-1.2l-0.5-2l6.5-1.4l5.7 0.4M441.5 94.3l0.6-0.8l2.3-0.2l0.5 0.8l1.8-1.8l-0.9-3.3M449.7 88.9l0.1 1.4l2.8 0.8l0.1 1.3l2.8-0.7l1.4-1l4.7 2.6M506.4 130l-1.3 1.5l-0.8 2.7l1.1 2.1M502.6 161.6l-0.3 1.1l-4.4 0.3l0-0.6l-3.8-0.8l0.5-1.6l1.7 1.3l4.7 0.1l0 0.6l1.6-0.4M500.1 140.8l-3.4-0.5l-3.5 1l2.2 2.1l-1.5 0.6l-1.6 0l-1.8-1.9l-0.5 0.8l0.9 2.2l1.6 1.8l-1 0.8l3.3 2.9l0.3 2.1l-2.9-1l1 1.9l-1.9 0.4l1.4 3.3l-2 0.1l-2.6-1.7l-2.1-5.5l-2.9-3.9l-0.3-1M532.5 159.6l-1.3-1.7l1-1.4l-1.8 0.3l-2.7-0.9l-1.8 2.2l-4.6 0.4l-2.7-2l-3.3-0.1l-0.5 1.5l-2.1 0.5l-3.1-2l-3.3 0l-2.1-3.7l-2.4-2.1l1.2-2.9l-2.1-1.8l3-3.6l4.6-0.2l0.9-2.8l5.8 0.5l3.3-2.4l3.3-1.1l4.9-0.1l5.6 2.7l4.4 1.4l3.4-0.6l2.6 0.4l3.3-2M505.4 136.3l0.5 1.5l2.8 1.2l-0.5 0.9l-3.5 0.2l-3.5 3.2l-1.1-2.5M482.8 145.3l-2.4-2.4l-0.4-1.8l0.4-3.7l-0.5-0.6M477 134.6l-7.5-3.9l-2.6-2.7l0.6-0.3l-1.5-1.5l-0.1-1.3l-1.9-0.6l-0.8 1.6l-1-1.2l0.1-1.4M429.4 102.7l2.3-0.8M431.7 101.9l1.4-0.9l2.3-5.3l3.8-1.5l2.3 0.1M399.7 154.8l-1.3 1l-1.5-0.6l-1.6 0.4l0.5-2.9l-0.2-2.3l-1.3-0.4l-0.7-1.4l0.3-2.5l1.3-1.3l0.9-3.8l-0.6-4.2M395.5 136.8l0.2-2.6l-1.2-1.7l4.3-2.7l10.7 1.3l7.2 0M431.1 134.6l0.2 2.2l-2.8 2.5l-3.8 0.8l-0.2 1.2l-1.9 2.1l-1.1 3.1l1.1 2.1l-1.7 1.7l-0.7 2.4l-2.3 0.8l-2.1 2.9l-6.8 0l-3.1 2.7l-1.5-0.3l-1.9-3.4l-2.8-0.6M405.1 92.9l0.4 2.5l-2.3 3.2l-5 2.2l-4-0.6l2.5-3.7l-1.3-3.7l6-4.4M949.6 374.1l3.1 4.1l-1.5 0.9l-1.4-1l-3.3-3.7l-1.3-2.7l-0.1-1.3l1.3 0.1l3.2 3.6M946.3 334.1l0.7 1.3l-2.3 0l-0.9-2.3l2.5 1M945.3 330.8l-0.6 0.7l-2-3.3l-0.4-2.2l1.1 0l1.9 4.8M942.5 331.8l-3.2-0.3l-0.6-0.5l0.3-1.5l2.1 0.6l1.4 1.7M939.4 324.9l0.6 1.9l-5.1-4.2l0.6-0.4l3.9 2.7M931.6 321.1l1.2 1.2l-0.7 0.3l-1.3-0.9l-1.2-1.5l0.2-0.7l1.8 1.6M952.2 445.8l-5.5 4.6l-3.3 1.5l0.2-1l-0.9-0.5l3.6-3.1l0.3-2.1l-2.3-1.5l0.9-1.3l2.9-1.3l3.5-5.4l0.6-3.2l-1.2-4.9l0.1-2.6l1.3-0.3l0.6 2.1l1.8 1l-0.9 3.3l0 4l1.5-2.6l0.8 1l-1.2 2.9l1.8 1.2l1.8 0.3l2.6-1.4l1.3 0.4l-5 5.6l-2.2-0.1l-1.5 1.1l-1.6 2.3M922.4 458.9l6.8-3.9l4.9-3.7l1.7-2.1l3.2-1.8l-0.6 3.2l3-1.5l-0.1 1.5l-1 1.6l-8.5 6l-0.1 1.8l-2.3 0l-3.5 1.4l-6.7 6.2l-5.7 2.7l-2.6-0.1l-1-1.2l-3-0.2l0.5-1.4l3.4-2.7l6.2-3.7l5.4-2.1M863.3 448.6l1.6 0.3l-2.2 4.4l-1.7 1.3l-2 3l-0.4-1l-3.6 2.6l-2.2-0.3l0-3.2l0.9-2.5l0-3.3l1-1.7l1.8 0.4l2.2 1.2l4.6-1.2M811.8 416.2l-6.9 2.8l-3 3.6l-4.6 0.4l-2.5-0.7l-4.5 0.6l-2.6 2l-0.8-0.2l-3.8 2.3l-4.2-0.2l-3.9-3.1l0.8-2.2l1.7-0.5l0.8-0.8l1.6-4l0.3-2.3l-0.3-5.9l0.7-2.2l-0.3-3.6l-1-1.5l0.4-3l-1.1-4.6l1 1.7l-0.2-3.5l1.3 1.1l0.6 1.4l0.4-1.9l-1.4-5.3l2.6-5l0.1-2.2l1.9-2.8l-0.4 2.9l1.9-2.6l7.4-4.2l1.5-0.3l0.8 0.4l4.8-1.8l1.6-1.2l1.7 0.1l3.6-1.1l5.5-5.6l0.8-3.5l2.8-3.3l0.8 3.3l1.5-0.8l-0.8-1.7l1.3-1.9l1.2 0.9l0.9-2.9l3-3.4l1.7-0.6l0.2-1.1l1.4 0.5l0.2-1l3.1-1l2.1 1.7l1.5 2.3l4 0.3l-0.4-2l2-3.1l1.6-0.9l-0.4-1l1.7-2.1l2.1-1.4l1.6 0.5l2.8-0.7l0.2-1.9l-2.2-1.3l1.8-0.5l2 0.9l1.5 1.5l2.6 1l1-0.4l1.9 1.2l2-1.1l1.2 0.3l0.8-0.7l1.2 1.9l-2.5 3.5l-1.2 0.1l0.2 1.5l-2.7 3.8l0.1 1l2.2 2.1l2.2 1.2l3.4 3.6l2.4 0.9l0.2 1.2l2.8 1.3l2.4-1.3l4.3-8.8l0.2-5.1l0.9-2.8l0.7-0.8l-0.3-1.2l2.1-5.2l1.4-1.4l0.7 1.9l-0.1 2.3l0.8 0.5l-0.1 1.6l0.9 1.9l-0.4 3.5l0.6 2.9l2.3-1.4l2.1 3.1l-0.6 1.7l0.2 5.1l0.7 0.4l0.2 3.3l-0.7 1.9l0.5 2.6l3 2l3.5 3.4l-0.6 0.9l1.2 2.4l0.1 4.1l1.5-0.9l0.9 1.7l0.9-0.6l-0.6 4l4.1 6.8l-0.1 3.1l-1.6 4.5l0.3 3.2l-1.4 3.3l-5.8 10l-2.8 3.5l-3.1 1.8l-8.6 10l-4.1 6.6l-2.4 1.3l-3.5 0.1l-3.5 1.6l-4.7 3.1l-1.7-1.7l-1.5-0.7l1.4-1.9l-2 0.7l-3.9 2.7l-7.6-3l-0.9-2.3l0.8-4.8l-0.8-1.5l-2.7-0.4l1.7-1.9l0.4-2.8l-2.5 2.6l-3 0.7l2.4-2.1l3.3-4l0.8-2.8l-3.7 3.2l-2.4 1.3l-2.4 3l-1.8-1.5l0.9-2l-0.9-2.8l-1.1-1.4l0.9-0.9l-3.1-2.3l-2.1-0.1l-2.3-1.8l-5.7 0.4l-8.4 2.6l-2.9-0.3M687.3 266.4l-0.3 4l-1.3 1l-2.8 0.9l-1.7-3l-0.8-5.4l1.1-6.1l2.4 2.1l3.4 6.5M772.4 226.2l-2.8-1.1l-0.6-3.3l1.3-1.7l3.3-1l1.8 0l1 1.5l-1.1 1.6l-0.4 2.2l-2.5 1.8M794.8 144.1l-3.7 1.1l-1.5 1.8l-2.8 1l0.9-1.7l-1.3-1.5l1.3-2.5l-2.4-2l-2.1 1.3l-2.2 2.6l-0.9 2.5l-2.8 0.2l-0.9 1.7l2.6 2.6l2.7 0.6l0.8 1.7l2.8 1.1l2.3-2.7l3.3 1.4l2 0.1l1.3 2l-3.9 1.1l-0.7 2l-2.2 1.9l-0.7 2.6l4.1 2.1l2.5 3.7l6.1 6.4l0.8 2.8l-1.6 1.1l1.4 2l2.2 1.1l0.5 6.1l-1.7 0.4l-2.4 9l-1.8 4.5l-7.2 6.7l-3.5 0.5l-1.6 1.6l-1.3-1.2l-1.4 1.9l-4.1 1.9l-3.2 0.6l-0.4 3.9l-1.7 0.3l-1.3-2.8l0.4-1.4l-4.5-1.2l-1.3 0.6M806.8 202.8l-1.1 9.2l-2.4-3.2l-1-2.8l1-3.7l1.8-2.9l1.7 1.1l0 2.3M463 123l-2.4-0.5l-2.3 1.3l-0.1 2.9l1.1 1.9l2.9 1.8l1.6 3.1l3.5 3l2.3 0l0.8 0.8l-0.8 0.8l5 2.5l3 2.6l-0.4 1.4l-1.8-1.8l-2.7-0.6l-1.1 2.4l2.3 1.4l-0.3 2l-1.2 0.2l-1.4 3.2l-1.3 0.3l0.5-3.1l0.6-0.8l-2.3-4.1l-1.3-0.5l-1-1.6l-1.9-0.7l-1.4-1.5l-2.2-0.2l-5.2-4.2l-2.1-2.1l-1.1-3.7l-3.9-1.6l-1.3 0.5l-1.7 1.7l-1.2 0.3M466.9 150.8l2.3-0.3l-1 3l0.5 1.1l-0.5 2l-8.3-3.8l0.4-1.9l3.5 0.3l3.1-0.4M448.3 140.5l1.5-1.2l1.8 2.7l-0.2 5l-1.4-0.3l-1.2 1.3l-1.1-1l-0.3-4.6l-0.8-2.1l1.7 0.2M445.8 89l-1.2-2l-0.2-3.6l0.4-0.9l0.7-1.1l2.4-0.2l3-1.9l0 1.8l-0.7 1.1l0.4 1l1.5 0.5l-0.6 1.3l-0.8-0.3l-1.9 2.5l0.9 1.7M456.2 84.9l0.9 1.8l-1.4 2.9l-3-2l-0.5-1.5l4-1.2M401.4 88.4l2.4-0.1l2.8 2.1l-1.5 2.5M413.7 94.5l0.4-2l-1.8-2.3l-3.4-0.6l-0.6-1l1-1.5l-0.8-1l-1.6 1.7l0-3.4l-1.4-1.8l1.2-3.6l2.1-2.9l5.4 0l-2.9 3.8l5.7-0.5l-0.7 2.9l-2.5 3.1l2.8 0.3l2.6 4.5l1.9 0.6l2.5 5.4l3.4 0.7l-0.3 2.3l-1.4 1.1l1.1 1.8l-2.5 1.9l-3.8 0l-4.9 1l-1.3-0.7l-1.9 1.7l-2.6-0.4l-2 1.4l-1.5-0.8l4.2-3.8l2.6-0.7l-4.4-0.6l-0.8-1.5l3-1.1l-1.5-1.9l0.5-2.4l4.2 0.3M385.7 49.8l-0.8 2.1l2.7 2.3l-3.6 2.5l-10 2.9l-10.4-1.6l2.8-1.4l-5.4-1.6l4.6-0.7l0.1-0.9l-5.3-0.8l2.1-2.1l3.9-0.5l3.6 2.2l4.1-1.8l3.1 0.9l4.3-1.7l4.2 0.2M566.7 137.1l3.9 4.6l1.4 0.2l1.1 1l-2.4 0.3l-0.3 4.2l-0.9 0.9l0.3 1.9M546 138.1l0.2-1.6l-1.2-2.5l-4.9-3M811.9 246.9l-2-2.8l2.8 0.1l1.3 1.4l-0.5 3.2l-1.6-1.9M818.7 257.2l0.7-1.1l0.1-2.3l1.8-0.2l-0.3 2.5l2-3.6l0.1 3.6l-2.8 4.7l-2.2-2.6l0.6-1M831.5 263.1l0.9 4.6l-0.9 3.4l-1.4-3.8l-1.4 1.9l1.2 2.8l-0.8 1.7l-4-2.1l-1.1-2.8l0.9-1.7l-2.2-1.8l-0.9 1.5l-1.5-0.1l-2.3 2.1l-0.6-1.1l1-3.2l3.6-2.5l1.3 1.7l2.4-1l0.4-1.7l2.3-0.1l-0.5-2.9l2.8 1.8l0.8 3.3M805.7 259.7l-4 3.6l1.4-2.7l3.8-4.9l1.3-3.7l0.9 3l-3.4 4.7M813.6 226.1l-0.3 1.6l1.6 2.7l-0.4 3.1l-1.7 1.3l0 3l1.2 3l1.7 0.4l1.4-0.4l4.3 2.1l0 2l1.1 0.9l-0.1 1.8l-2.7-1.9l-1.5-1.9l-0.6 1.3l-2.4-2.2l-2.8 0.5l-1.7-0.8l-0.1-1.6l0.9-0.9l-1.1-0.9l-0.2 1.4l-2.6-3.8l-0.7-3.6l1.5 1.2l-0.7-5.9l0.5-3.4l1.9 0l2.2 1.1l0.8-1l0.5 0.9M816.3 251.8l-0.7-1.8l2.1 1.2l2.1 0l0.1 1.5l-1.3 1.6l-2 1.2l-0.3-3.7M827.2 249l1.4 4.2l-2.6-1l1.2 3.6l-1.4 0.8l-0.4-2.6l-1-0.2l-0.8-2.3l2 0.3l-0.3-1.4l-2.3-2.9l3.1 0.1l1.1 1.4M753.5 271.3l2.8 2.7l1.5 2.5l0 4.2l0.6 3.5l1.2 1.1l1.3 3.3l0 1.3l-2.3 0.2l-7.1-5.8l-0.4-1.9l-1.9-2.5l-0.6-3.1l-1.2-2l0.2-2.8l-0.8-1.6M778.5 287.2l2.4 1.3l2.5-0.7l0.6-3.2l5.2-1.5l3.7-5.4M796.8 274.3l2.4-2.7l1.4-2.9l1.3 0l1.8 1.9l0.3 1.6l4.9 2.2l-0.1 1.5l-2.2 0.2l0.7 1.8l-2.4 1.3M792.9 277.7l3.9-3.4M462.3 123.3l0.7-0.3M496.7 69.7l-4.8 0.3l-8.7 2l-1.8-1.9l-2.7-1.1l0.2-3.4l-1.7-3l1-2l2-2.1l7-4.3l-0.5-1.4l-3.8-1.5M545.2 227l3.2 7.8l6.4 5.4l4.8 5.6l1.6 1.2M849 146.9l-1 3.8l1.8 3.9l0.2 3l1.4 1.9l-0.5 2.7l-3.1 1.8l-5.3 0.2l-2.7 4.3l-2.6-1.4l-1.3-2.9l-5 0.9l-2.9 1.7l-3.6 0.1l4.2 2.8l0.2 6.4l-1.4 1.6l-2-1.5l-0.5-3.4l-2.3-1.1l-2.2-2.6l2.5-1.1l0.7-2.4l2.3-2l1.2-2.5l5.7-1.2l3.5 0.8l0.4-6.7l2.8 1.8l3.8-5.2l-0.3-4.6l-2.6-4.2l0.1-2.4l2.8-0.7l4.3 5.2l1.4 3M847.7 129.1l1.2-1.6l3 4.2l-3.8 1l-0.6 3.7l-6-2.6l0.5 4.1l-3.3 0.1l-2.3-3.7l-0.1-2.9l3.1-0.2l-2.9-8l5.7 3.8l5.5 2.1M829.3 168.5l0.8-2.2l1.9 0.4l0.7-1.6l2.6 0.8l0.9 1.3l-0.9 2.3l-1.7-1.2l-1.3 0.9l0 2.2l-2.4-1.1l-0.6-1.8M592.6 232.1l-2.3 1l-0.4 2.9l-8.2 3.4l-2.7 2.7l-2.4-0.1l-1.8 1.6l-5.5 1.1l-2 2.3l-2.6 0.4l-2.2-0.2l-0.9-2.2l0-2.1l-2.4-5.4l0.6-0.2l-0.3-4.1M573.5 187.1l1.6 3.3l1.6 0.8l0.7 1.3l2.3 1.6l0.2 2.9l2.7 4.5M584.5 201.9l0.7 1.5M559.5 233.2l-1.8-4.2l-1.8-1.4l-1.9-3.1l-1.1-3.1l-2.3-2.6l-1.5-0.6l-2.4-3.6l-0.5-4.9l-2.2-4.2l-3.3-2.3l-2.1-4.9l-6.4-9.4l-1.6 0.1l0.6-5M522.3 162.2l0.6-1l2.2 0.1l2.7-1.1l-1.9 1.6l0.3 0.7M526.2 162.5l-2.9 1.8l-1.6-0.5l-0.8-1.5l1.4-0.1M368.2 214.1l0.2-1.8l2.3-3l-0.1-1.3l1.2-2.6l1.8-2.4l1.1-0.7l0.9-2.2l0.1-2l1.2-2.3l2.1-1.4l2.2-3.9l1.6-1.5l3-0.4l4.1-3.6l2.7-3.1l-0.7-4.7l1.7-5.3l2.1-2.6l5.4-3.2l3.1-6.3l2.3 0l1.8 1.6l2.9-0.2l4.5 0.9M500.2 175.7l4.1-0.1l7.7 2.7l3.5-2.3l2.7-0.3l2.2 0.5l1 1.9l0.6-1.3l5 1.1l1.5-0.9M531.1 183.5l-1.9 6.4l-0.7 0.6l-2.7-2.9l-2.6-5.4l-0.3 0.3l6.6 13.7l5.6 8.4l-0.6 0.7l0.3 2.4l4.5 4.2M457.7 169.7l3.6 1.3l1.3-0.3l2.6 0.6l4.2 1.7l1.6 3.4l7.2 2.3l3.4 1.9l2.9-2.7l-0.9-2.9l0.9-1.9l2.1-1.7l2.1-0.5l4.2 0.7l1.2 1.7l5.2 1.1l0.9 1.3M561.2 247l0.8 1.1l0 1.6l-1.8 0.9l1.4 1M561.6 251.6l1.1 0.7l2.2 3.2l8.1-1.4l5.5-2.2l1.8-0.1M479.9 136.8l-2.9-2.2M223 254.3l2.6-0.4l-0.3 2.8l-2.7 0.4l-0.6-0.3l1-1l0-1.5"/>
<path stroke-width="0.4" stroke-opacity="0.5" d="M532.4 298.3l12.3 8.1l0.2 2.1l4.6 3.8M552.6 333.5l-2.6 2.2l-3.6 1.5l-1.9-0.1l-1.2 1.1l-3.1 0.6l-3.9-1.1l-2.4 0.3M533.9 338l-0.8-5.1l-1.6-2.8l-3.2-0.7M528.3 329.4l-6.5-3.3M521.8 326.1l-1.6-4.8l-1.9-2.1l-0.6-2.1l0.4-2l-0.6-3.5M517.5 311.6l1.4-0.1l3.3-4.2l-0.9-3.5M521.3 303.8l0.9-0.5l0.2-2.2l-1.3-2.1M521.1 299l1.2-0.5l10.1-0.2M395.2 190.5l-0.1 1M395.1 191.5l-0.1 5.7l-10.3-0.2l-0.2 9.7l-3 0.3l-0.8 2l0.5 5.4l-12.5 0l-0.7 1.3M368.2 214.1l7.2-0.3l1.8-3.1l1.2-5.2l4.5-4.1l1.6-4.8l1-0.2l1.1-3l2.6-0.4l2.6 0.5l1-0.9l1.9-0.1l0-2l0.5 0M61.9 89.6l2.7-1.7l1.5-2.3l-3.1-2.2l0.3-6.5l-2-3l0-1.7l-7.7 3l-1.2-3.8l-1.8-0.9l-2.5-0.1l16.9-19.1l11.6-12M226 124.7l-1.3-2.1l1.4-5l-1-1.1l-2.1 0.6l-0.7-0.9l-3 2.7l-3.3 4.6l-2.4 0.8l-0.5 0.9l-9.9 0l-5.9 3.6l-1.3 1.5l-5.6 0l-1.6 0.6l0 2.2l-12.4 4.5l-1-1.1l4.8-6l1-6.6l-2.5-1.7l0.6-0.7l-1-0.4l-0.3-1.5l-1.4 0.3l-0.2-1.7l-8.1-5.2l-3 1.1l-4.1-1l-2.6 0.5l-2.3-1.1l-4.6-0.8l-0.6-0.6l0.4-2.1l-1 0.1l-0.6 1.4l-79.3 0M116.7 197.2l-1.2 0.2l-4.3-2.1l-0.6-4.4l-1.3-2.1l-1.5-4.8l-1.8-1.6l-2.6 0.1l-2.7 3l-2.3-1.1l-1.3-1.2l-0.8-4l-3.4-4.2l-5.3 0l-0.5 1.5l-8.6 0.1l-10.3-4.5l0.5-0.8l-7.7 0.7M672.1 109.7l-1.2 2.4l-2.3 0.4l1.3 3.6l-1 1.7l-6.2-1.2l0.2 6.6l-1.2 0.8l-5.3 1.5l4.7 6.5l-1.7 0.9l0.8 2.2M660.2 135.1l-1.9-0.6l-1.9-1.3l-9.5-0.5l-0.9 0.4l-4.7-1.6l-1.4 0.8l0.1 2.2l-5.2-1.3l-1.8 0.5l-0.2 1.7M632.8 135.4l-4.8 3.3l-0.6 2.7l-1.2 0l-1.2-1.8l-3.8-0.1l-1.4-3.1l-1.4 0l-0.7-3.8l-4.3-2.7l-8.3 0.9l-3.6-3.4l-8.5-4.4l-7 2.2l3 13.8M589 139l-1.5 0.1l-2.6-2.9l-2.3-1l-3.2 0.7l-1 1.3M564.9 120l-1.6-0.6l-0.1-1.9l-2.3-2.4l-2.1 0.1l-3-2.5l1.1-2.8l-1-0.7l1.4-4l3.4 2.1l-0.3-2.7l4.9-3.9l4.4-0.1l10.6 4l2.6-1.6l4.5 0l4.1 1.8l0.5-1l4.1 0.1l0.2-1.7l-5.3-2.5l2.1-1.7l-0.8-1l2.4-0.9l-2.8-2.5l0.9-1.2l10-1.2l1.1-0.9l6.4-1.3l2-1.5l5.2 0.8l2.2 3.6l2.6-0.8l4 1.2l0.5 1.9l2.6-0.2l5.6-3.3l-0.5 1.1l4.6 2.7l9.8 9.2l0.8-1.9l4.7 2.1l3.7-1l1.8 0.7l2.2 2.1l2.3 0.7l1.8 1.5l3.5-0.4l2.4 2.2M632.8 135.4l0.9 0.3l-1.8 2.5l2.5 1.4l1.9-1l4.1 2l-3.2 2.7l-2.3-0.4M634.9 142.9l-1.2 0.1l-0.7-1l0.2-1.7l-3.8 0.8l-1.3 4.5l-2.6-0.2l-0.4 1.7l2.5 0.9l1.3 2.8l-0.9 3.8M628 154.6l-4.1-0.8M623.9 153.8l-0.5-2.3l-7.9-3.5l-6.3-4.3l-2.4-3.9l-1.1-0.7l-3.2 0.2l-1.3-0.8l-1-3l-4.4-1.9l-2 2.1l-2.3 1.3l0.9 1.9l-3.4 0.1M878.7 329l1.5-24.5M826.8 328.2l0.2 1.8M778.5 287.2l0.6 2.5l2.2 2.1l2.1-0.7l2.1 0.2l1.8-1.9l1.6-0.3l3.1 1l2.6-0.8l1.6-5.2l1.2-1.3l1-4.3l3.7 0l2.8 0.7M237.5 500.2l-4.6-0.1l-2.8-7.9M243.2 408.7l-0.5 6.9l0.6 3.7l-0.5 0.9l0.1 2.4M229.9 490.9l-9.8-1l-1.9-2.1l-0.9-2.7l-1.8 0.2l-1.4-1.3l-1.6-3.9l1.7-1.6l0.1-2.3l-0.9-1.8l0.5-3.2l-0.4-4.9l-0.9-2.1l1.1-0.8l-0.8-1.4l-1.5-0.7l0.5-1.6l-1.7-1.4l-1.9-4.3l1-0.7l-1.7-4.6l-0.3-7.2l1.5-1.4l-1.8-3.6l-0.8-3.5l1.8-2.5l-0.8-3.1l1-3.7l-0.7-3.5l-0.9-0.7l-2.7-6.5l1.2-3.9l-0.9-3.7l0.5-3.4l1.5-3.5l1.8-2.4l-1.1-1.5l0.4-1.2l-1-6.3l3.2-1.9l0.6-3.9l-0.5-1M209.6 380.3l2.2-3.4l4.3 1l2.2 2.7l0.9-3.1l3.6 0.2l0.6 0.8M223.4 378.5l6.5 6.2l2.7 0.6l4.2 2.7l3.4 1.5l0.7 1.7l-2.4 5.8l6.9 1.6l2.4-0.6l2.5-3l0.1-3.3M250.4 391.7l1.5-0.7l1.8 2.2l0.3 3l-4.3 3.6l-6.5 8.9M199.5 360.9l1.8 2.5l0.7 2.8l1.9 1.6l-0.6 3.6l4.1 9.5l2.2-0.6M197.3 363.8l1.5-1l0.7-1.9M521.8 326.1l-1.2-0.4l-4.4 0.6l-0.9 0.5l-0.9 2.4l0.6 1.6l-1.1 8.3l3 2.1l0.9-0.7l0.2 4.1l-2.5 0l-2.4-3.7l-2.4-0.6l-0.7-1.9l-2 1.2l-2.6-0.6l-1-1.7l-3.6-0.2l-0.1-1.2l-1.1-0.1M499.6 335.8l-1.5-0.2l-4.2 0.8l0.2-4.5l-1-1.4l-0.2-2.3l0.5-2.3l-0.7-1.4l0-2.4l-3.9 0.1l0.3-1.4l-1.7 0l-0.2 0.7l-2 0.1l-1.3 3.2l-1.8-0.6l-3.2 0.9l-2-3.2l-1.6-5.1l-9.6 0l-3.4 0.8M461.8 316.5l0.8-0.4l0.7-2.6l1.2-0.8M464.5 312.7l0.8 0.4l1.1-1.5l1.8 0.1l0.2 1l1.2 0.7l4.7-5.4l-0.1-3.1l1.4-3.6l3.6-3.8l0.4-1.2l0.8-8.1l1.6-4.4l0.2-2.2M482.2 281.6l0.3-2.7l1.2-1.9l1.8-1.2l4.7 2.7l4.8 1.1l1.4-2.6l1.5 0.4l3.6-1.9l1.3 0.8l1-0.1l0.5-0.9l1.2-0.3l4.6 0.5l1-0.4M511.1 275.1l2 3.1l1.5 0.4l0.8-0.6l1.5 0.2l1.8-0.8l0.8 1.6l2.9 2.5M522.4 281.5l-0.2 4.4l1.3 0.5l-2.2 2.4l-2 3.7l-0.9 7.3M518.4 299.8l-1 1l-0.8 4.6M516.6 305.4l0.8 1.7l0.1 4.5M557.4 301.1l-1.9-3.2l-0.1-13.6l2.8-4.3M558.2 280l0.8-1.2l2.1-0.1l2.9-2.6l4.2-0.2l8.9-11.3M577.1 264.6l3.5-5.4l-0.3-7.4M532.4 298.3l0-4l3.7-6.7l-1.9-6.2l-1.5-2.7M532.7 278.7l4.1-4.7M536.8 274l1.7 0.7l0 2.1l1.2 1.2l2.2 0l4.2 3.2l4.6 0.7l1-1.6l2.9-1.6l1.4 1.3l2.2 0M501.9 263.8l-3.7-2.7l0.3-4.3l-2-2.4l-0.3-1.6M496.2 252.8l0-0.9l-1.2-1.1l-0.1-2.2l-0.7-1.4l-1.2 0.2l1.1-3l-0.4-1.5l1.1-1.2l-0.7-0.9l2.1-5.1l2.8 0.3l-0.6-15M498.4 221l-0.1-1.6l3.7 0l-0.3-7.5M501.7 211.9l37.6 0M545.2 227l-1.5 2.1l-2.3 0.7l-1 1.1l-1.3 8.1l0.4 1.5M539.5 240.5l-1.5 6.9l-1.9 1.9l-1.6 4.4l-1.5 1.1l-0.8 3.9l0.1 3.4M532.3 262.1l-0.1-3l-0.5 0l-0.4-3.2l-1.7-1.5l-0.5-2.7l0.3-2.8l-1.5-0.2l-0.2 0.8l-1.9 0.2l0.8 1.1l0.3 2.3l-3.2 4.7l-1.7 0.4l-2.7-2.2l-1.2 0.8l-0.3 1.1l-1.7 0.7l-0.1 0.8l-3.2 0l-0.5-0.8l-2.3-0.1l-1.2 0.6l-0.9-0.3l-2.2-3.2l-2.4 0.5l-1.6 5.1l-2.1 1.1l2.3 1.5M496.2 252.8l-2.1 0.7l-1.6 1.5l-2.3 4.1l-3 1.7l-4 0.2l0.3 1.3l-3 2.8l-4.1 1.4l-1.3-0.9l-0.6 0.9l-2.7 0.3M471.8 266.8l0.5-1l-1.5-4.1l-1.4-0.7l-2-2.2l0.7-1.8l4.2 0.2l-1.8-3.4l-0.1-5l-1.4-2.4M469 246.4l0.3-1.8l-2-0.1l-0.1-2.4l-1.3-1.4l1.3-5l4-3.5l0.1-4.9l1.7-9.3l-1.4-1.3l-0.1-1.2l-1.2-1l-0.9-5.9M469.4 208.6l3.1-2.1l25.9 14.5M193.6 220.5l-0.4 3.5l-0.8 0.7l0.7 1.1l-0.2 1M485.3 91.2l-8.6-0.3M480.9 88.2l4.2 1.2l0.2 1.8M810.3 135.5l-0.8-0.6M809.5 134.9l-0.9-1.9l1.4-0.1l-1.8-4.4l-2.4-3.2l1.8-1.3l3.9 0.7l0-3.6l-1.3-4.1l0.3-1.3l-0.5-3.3l-4.1 1.1l-1.6 1.4l-4.4 0l-3.2-3.4l-4.9-2.6l-5.6-1.2l-3.2-3.6l-8.3-7.4l-8.2-2.3l-6.7 0.7l-1.2 1.8l2.1 0.8l1.2 2l-0.9 1.2l-0.4 3.8l1 1.6l-2.8 2.3l-4.2-1.4M754.6 107.2l-3.2 0.3l-4.1-1.6l-2.8 2.6l-5.6 1.5l-6.5-0.6l-6.3-3.6l-3.1-0.5l-5.8 1.2l-4.7-1.5l-1.9-2.7l-6.5-1.4l-3.9-1.5l-1.1 3.8l2.1 2.1l-1.6 2.5l-7.4-1l-2.7-1.7l-3-0.1l-2.9-1.1l-3.6 1.7l-4.1 3.2l-2.8 0.6M673.1 109.4l-1 0.3M566.7 137.1l-1.9 2.4l-1.3-0.2l-2.4-2.3l-0.9-0.1M560.2 136.9l-2-0.9l-1.2-1.5l-2.9-0.8l-1.7 0.6l-4.9-2.5l-7.1-1.2l-0.3 0.4M532.9 117.4l-0.2-1.6l1.3-1l2.8-0.3l0.2-1.2l-1-2l0.9-2l-0.3-1l-6.1-1.2l-2-1.7l-2.1 0.6l-3.8-1.3l-1.3-2.3l-2.3-0.1l-0.4-1.2l0.5-0.7l-2.1-2l-3.7 0.1l-0.6 0.9l-1.1-0.2M511.6 99.2l-1.9-3.5l2.8-0.2l0.9-0.8l-0.9-0.9l-2-0.6l0.1-0.7l-3.4-3l0.5-0.9l-0.6-1.7l-2.8-0.8l-1.4 0.4l-0.5-0.9l-3-0.9M499.4 84.7l-1.7-3.7l-1.4-0.8M496.3 80.2l1-1.1l-1.4-3.3l1.6-2l-0.5-0.6M496.7 69.7l6.9-6.3l0.7-1.7l-4.3-2.3l0.6-2.2l-2.8-2.4l1.2-2.8l-3.7-3.8l1.9-2.4l-4.3-2.2l-0.1-2.2M492.8 41.4l5.9-1.6M519.6 121.6l0.7-0.9l3.1 0.9l1 0.9M492.8 41.4l0.6-2.2l-3.4-1.3l-3.6 1.1l-0.8 2.3l-2.1 1.4l-2.7-0.7l-3.2 0.1l-3-1.7l-1.4 0.9M473.2 41.3l-1.5 0.1l-0.1 2.1l-4.7-0.5l-0.5 1.8l-2.3 0l-3.6 5.9l-3.5 4.6l1 1.1l-0.7 1.4l-2.6-0.1l-1.4 3.1l0.5 4.5l1.8 1.7l-0.6 4l-3.1 4.4M473.3 402.4l1.6-1.8l1.2 1l0.5 1.6l3.3 1l1.7-0.3l2.9-1.9l0.6-14M485.1 388l0.8 0.6l1.7 3.6l-0.4 2.3l0.7 1.3l2.2-0.4l3.2-2.8l0.9-1.8l1.6-0.9l2.7 1.5l2.6 0.2l2-0.8l1-3l1.8-0.3l2.2-4l3-2.8l4.6-2.8M515.7 377.9l2.8 0.7l1.1-0.5l1.7 0.4M521.3 378.5l1.8 8l-0.6 5.6M522.5 392.1l-1.6-0.7l-0.9 0.3l-1.3 2.5l-0.1 1.3l1.7 2.1l1.9-0.4l0.8-1.7M523 395.5l2.3 0M512.7 403.9l-1.3-1.2l-1.5 0.8l-3.6 3.9l2.1 2.9l1.2-0.4l0.6-1.2l1.8-0.6l1.7-3.1l-1-1.1M140 225.1l-0.6 0l-1.4 2.3l-0.5-0.4l-0.5 0.7M137 227.7l-5.9 0l-0.3 2.1l-1.5 0l2.9 3.2l-0.2 1.3l-4.2 0l-1.9 3l0.4 0.8l-0.7 1.9M243.2 408.7l2-0.4l3.5 2.9l1.2-0.1l6.2 4.5l2.2 2.6l-1.1 1.8l1.2 2.1M250.4 391.7l0.3-6.5l-1.2-0.7l-1.1 0.6l-1.2-0.1l-1.9-6.1l-2.3-1l-1.2 0.7l-3.4-0.7l-0.3-5.1l-1.2-2.1M236.9 370.7l1-0.8l-0.5-2.2l0.7-1.6l0.3-3l-1-2.3l-1.8-1.1l-0.5-1.5l0.4-2.2l-6.2-0.1l-1.6-4.4l0.9-0.1l-1.1-4.9l-2-1.1l-2 0.1l-3.6-1.9l-1.4-1.4l-3.6-0.6l-3.7-3.4l-0.2-6.8l-4.2 0.7l-4.4 2.9l-0.6 1.1l-4.1-0.2M197.7 335.9l-1.8 0.7l-1.5-0.5l-0.1-5.7l-2.5 2.2l-2.9-0.1l-1.3-2l-2.2-0.2l0.6-1.6l-1.9-2.3l-1.5-3.4l0.8-0.7l-0.1-1.6l2-1.1l-0.4-2l0.7-1.3l0.2-1.8l3.7-2.5l2.6-0.7l0.4-0.6l3 0.2M195.5 310.9l1.3-12l-0.5-2.1l-1.5-1.4l0.1-2.7l1.8-0.6l0.6 0.4l0.2-1.5l-1.9-0.4l-0.1-2.3l6.4 0.1l1-1.3l1.6 3.4l0.6-0.5M205.1 290l1.8 2l2.5-0.2l0.6-1.2l3.8-1.5l0.4-1.6l2.3-1l-0.2-0.8l-2.7-0.4l-0.3-4.8l-1.4-1l0.6-0.4l5 1.5l0.9-0.9l6-2l1.3-1.5l-0.4-1M225.3 275.2l1.7-0.2l0.7 0.9l-0.5 1.6l1.1 0.6l0.7 1.7l-0.9 1.4l-0.6 3.2l1.1 3.6l2 1.8l1.6 0.2l0.3-0.8l2.5-0.8l1.1-1l2.6 0.2M238.7 287.6l1.7 0.3l0.1-2.6l1.3 0.3l1.6-0.4l1.8 0.8M245.2 286l1.4 0.8l1-1l0.8 0.2l0.4 1l1.6-0.3l1.2-1.4l3-6.2M236.9 370.7l-0.1-1.2l-3.2-1.9l-2.9-0.1l-5.5 1.1l-1.2 3.4l-0.6 6.5M199.5 360.9l1.6-4.1l-1.6-3.2l0.6-1.2l-0.7-1.4l1.1-1.9l-0.2-5.9l0.6-1.2l-3.2-6.1M161.6 307.5l0.4 1.6l-0.9 0.9l0.1 1.4l1.4-0.3l1.3 0.4l1.4 1.9l1.8-1.6l0.5-2.5l2-3.3l3.8-1.5l3.5-3.9l1-2.5l-0.4-2.8M177.5 295.3l0.8-0.4l2.2 1.8l1 1.8l1.5 1l2 3.9l2.4 0.5l1.8-1l1.2 0.6l1.9-0.3l2.5 1.8l-2 3.8l1 0.1l1.7 2M177.5 295.3l-3-2.1l-1 0.6l-2.7-0.6l-0.8-1.6l-3.8-2.1M169.9 267.6l0.5-1.9l1 0.3l0.7-1.1l-0.6-2.2l0.4-0.6M192.1 250.4l-2.1 0.7l-1 1.9l-2.3 2.4l-1.6 4.9l1.7 0.3l1 2.5l-0.2 3.7l0.8 0.3l0.7 1.3l4.2-0.3l1.8 0.5l2.2 3.2l5.5-0.6l1.1 0.6l-1.4 3.3l-0.3 2.7l1.6 4.5l-1.7 1.8l2 2.2l1 3.7M153.6 263.8l1-2.6l-0.7-0.6l0.1-1.5l1.3-0.3M145.5 253l0.5-0.5l2 1l0.8-0.4l2.4 1.3l0.9-0.8M140.9 245.9l2-1.1l0.1-1.8l1.4-0.1l0.8-1l0.9 0.8l2.2-2l0.9-1.6l1.5 0.6l3.2-1.5l1.1 0.1M139.5 244.4l0.3-1.5l-0.4-0.4l-2 0.1l-1.6-1.8l-1-0.3M134.8 240.5l0.8-1l0.1-1.4l3.3-2.5M132.2 243.1l2-2l-0.1-0.4l0.7-0.2M137 227.7l-1.2 7.3l1 0M228.8 263.3l-2.6 2.2l-0.4 1.3l1.1 1.5l-2.9 1.3l0 1.7l-0.9 1l2.2 2.9M237 272.3l-0.6 3.4l-2 0.9l-0.5 2.9l1.4 2.7l1 0l0.4 2.1l2 3.3M247.3 273.1l-1.8 3.2l0.2 2.6l1.3 2.2l-1.8 4.9M440 108.8l1.3 0.9l4.2 0.7l-1.4 2.5l-0.2 2.6M443.9 115.5l-0.8 0.7l-1.3-0.4l0.1 0.9l-2.1 2.1l0 1.7l1.4-0.6l1 1.6M442.2 121.5l-0.1 1.1l0.9 1.4l-1 1.1l0.9 2.9l1.6 0.4l-0.3 1.7M431.1 134.6l-3.4 0.5l-3.3-1.7l-1.1 0.8l-5.4-1.7l-1.2-1.4M429.4 102.7l0.4 1.2l1.3 0.1l3.4 3.2l1.5-0.3l2.5 1.6M438.5 108.5l1.5 0.3M515.7 377.9l-1.9-1.7l-2.4-0.6l-0.8-3.7l-1.3-0.4l-3.5-4.2l-2.6-5.8M503.2 361.5l5.6 0.7l4.8-5.5l1.2-0.3l0.4-1.3l1.9-1.5l2.4-0.5M519.5 353.1l0.2 1.4l2.7-0.1l2.1 1.7l1.5 0.3l1.6 1.2l-1.2 13.6l-1.5 3l-3.6 4.3M485.1 388l0.4-11l3.1-0.1l0.6-13.5l7.3-1.4l1.2 1.5l2.1-1.5l2.8-0.8M502.6 361.2l0.6 0.3M459.9 359.8l3.5-1.3l2 0.1l1.9 1.7l13.5-0.4l2.2 1.8l7.7 0.5l5.9-1.5M496.6 360.7l2.7-0.9l2.1 0.2l1.2 1.2M369.5 234l1.1-1.2l1.6 0.3l1.6-0.8l1.8 0l3.6 2.1l4 5.3M383.2 239.7l0.7 4.5l1.2 1.1l0.1 2.6M385.2 247.9l-2.3-0.1l-0.9 0.5l-3.9-0.9M378.1 247.4l-5.9-0.2l-3.7 1M368 245.3l3 0l2.5-1.4l2.8 0.9l1.4-0.9l-0.6-1.1l-2.1 0.7l-1.3-1l-1 0.1l-0.7 0.9l-3.5 0.1M383.2 239.7l1-0.6l0.6-2.3l1-0.1l2.3 1.1l1.8-0.7l1.2 0.2l0.5-0.8l12.9-0.1l0.7-2.6l-0.5-0.5l-2.7-32.6l4.8-0.1M406.8 200.6l21.3 16.5l0.8 1.8l3.4 1.7l0.1 2.4l3.5-0.4M435.9 222.6l0.1 8.7l-1.7 2.5l-0.3 2.4l-7.3 0.9l-1.1 1.3l-2.1 0.2M423.5 238.6l-2 0l-0.9-0.7l-1.7 0.5l-3 1.6l-3.6 3.8l-1.3 0.8l-1.6-0.5l-0.9 0.9l-0.5 2.6l-2.6 3.1l0.1 1.3l-0.9 1.5l0.2 2.2M404.8 255.7l-2.1 1.1l-0.5-1.6l-1.4 0.3l-0.6 1.1l-2.5 0l-0.9-0.6l-0.5 0.4M396.3 256.4l-0.9-1.1l0.1-1.2l-0.4-0.4l-0.6 0.4l0.8-2.2l-2.4-3.5l-0.7-0.1l-2.7 1.9l-2.8-1.4l-1.4 0.5l-0.1-1.4M395.1 191.5l11.7 9.1M428.4 271.6l-0.9-2.6l0.2-8.6l-0.7-0.8l-0.1-1.8l-2.1-2.4l0.4-2M425.2 253.4l1.1-0.5l0.7-1.6l1.5-0.4l0.8-1.1M429.3 249.8l1-1.1l1.2 0l2.5 2.2M434 250.9l0.6 3.5l-0.7 1.5l0.4 1l-2.6 3.5l-0.6 2.3l-0.1 8.5M469 246.4l-0.9 0.2l-0.1 1.2M468 247.8l-0.6 0.1l-2.2-4.2l-0.8-0.1l-2.4 2.1l-4.3-1.3l-0.9 0.5l-1.9-0.1l-1.9 1.6l-1.6 0.1l-4-2l-1.5 1l-1.6-0.1l-1.2-1.4l-3.3-1.4l-3.4 0.4l-0.9 0.8l-1.3 3.7l-0.2 3.4M429.3 249.8l0-2.6l-3.7-0.8l-0.1-1.8l-1.8-2.5l-0.2-3.5M435.9 222.6l4.5-1.7l9.1-7.4l10.8-7.2M460.3 206.3l5 1.6l1.9 2.1l2.2-1.4M468 247.8l1.3 1.5l-0.5 1.9l-2.6 2.9l-2.6 7.9l-1.7 1.5l-1.5 5l-2.3 1.3l-1.8-1.6l-1.2 0.1l-1.9 2.2l-1 0l-2.3 6.3M471.8 266.8l-1.6 3.8l-0.8 0.7l-0.1 5.6l1.5 2l1.5 3.3l1.5 1.2l0.5 2.8M474.3 286.2l-0.2 2l-5.2-1.8l-4.1-0.2M464.8 286.2l-5.9 0M458.9 286.2l-5.3-0.1M425.7 272.4l-1.5-3.7l-0.3-1.8l0.7-3.4l-0.8-1.4l-0.3-5.7l-1.4-1.9l0.3-1.2M422.4 253.3l2.8 0.1M413 276l0.2-1.5l-1.4-3.3l0.8-4.2l1.4-3.2l-0.8-5.3M413.2 258.5l-0.4-5l9.6-0.2M404.8 255.7l3.5 2.9l1.1-1l1.5-0.1l2.3 1M397.3 278.3l0.5-5l-3.4-2.9l0.7-1.7l-0.1-2.9M395 265.8l0.5 0l-0.1-2.3l1.5-1l-1.5-4.6l0.3-1.3l0.6-0.2M395 265.8l-1-0.1l-0.6 1.6l-0.9-0.1l-0.7-0.8l0.3-1.5l-1.4-2.3l-1.5 0.5M389.2 263.1l-0.9 0.2l-0.4-3.4l-1.5-2.9l-2.6-0.1l-1.7 0.8l-0.9 1.9l-1.8 1.7M373.4 253.2l1.5-1.8l1 0l2-1.1l0.2-2.9M385.2 269.2l1-2.3l3-3.8M482.2 281.6l-4.3-0.9l-1.9 2l-1.7 3.5M501.9 263.8l1.8 1.5l0 1.2l3.6 3.6l0.8 2.3l2.5 1.5l0.5 1.2M464.5 312.7l-1.2-1.3l-2.3 2.3M458.3 309.7l2.5-2.1l-1.2-2.5l1.1-0.9l2.2-0.5l0.2-1.7l1.8 1.8l2.8 0.2l1-1.8l0.5-2.5l-0.4-2.9l-1.5-2.2l1.4-4.4l-0.8-0.7l-2.5 0.3l-0.9-2l0.3-1.6M453.1 290.9l5.9-0.2l-0.1-4.5M528.3 329.4l1.5 1.7l0.7 3.2l-1.3 4.1l0.5 3.1l-1 1.3l-1.1 3.5l1.6 1M529.2 347.3l-9.9 3.1l0.2 2.7M496.6 360.7l-4.1-5.5l0.5-12l6.7 0.1l-0.1-7.5M533.9 338l-1 2.9l0.7 4.9l1.1-0.1l1.1 1.3l1.3 2.7l0 4.8l-1.4 0.8l-1.1 2.6l-2-2.3l-0.1-2.7l0.8-1.7l-0.2-1.5l-1.2-1l-0.9 0.4l-1.8-1.8M523 395.5l-0.5-3.4M516.6 305.4l1.9 0.3l1-2.1l1.8 0.2M532.4 171.4l-0.4 1.1M532 172.5l-1.2-0.5l-0.4 2.5l0.8 0.5l-0.7 0.5l-0.1 1l1.5-0.5M531.9 176l0.2 1.4l-1 6.1M531.1 183.5l-2.6-6.5M530.4 169.9l2.1-0.7M532.5 169.2l-0.1 2.2M532.5 164l1.4 0.2l0.7 1.5l-1.5 1.4l-0.6 2.1M532 172.5l-0.1 3.5M451.8 180.4l-1.5-6.7l-4.6-4.7l-0.3-2.9l1.8-2.1l0.7-3.1l-0.6-3.6l0.6-1.9M457.7 169.7l-0.1 2.9l-4.5 3.8l0.2 3.2l-1.5 0.8M395.2 190.5l0-4.5l5.1-2.8l5.7-1.6l1.2-1.9l3.7-1.5l0.1-2.8l1.8-0.3l1.4-1.4l4.1-0.7l0.5-1.4l-0.8-0.8l-1.2-6.3l-1.1-2.4M451.8 180.4l1.3 5.1l-0.5 3.1l0.2 6.2l-1.2 1.6l1.9 2.8l0.2 1.6l1.1 2.1l1.5-0.7l2.5 1.7l1.5 2.4M532.4 171.4l3.6 1.5l5.6-4.1M541.6 168.8l1.7 4.6M543.3 173.4l-6.5 2.5l3.5 3.8l-1 0.6l-0.4 1.3l-2.3 0.5l-1.9 2.6l-3.5-0.7M598.6 196.5l0.8 1.3M600.1 200.8l-1.6 0l0.1 2.5l0.6 0.5l-1.4 0.8l-0.5 4.6M597.3 209.2l-0.6 0.8l-9.7-1.9l-1.8-4.7M584.5 201.9l-0.9 0.3l-1-0.7M573.5 187.1l-2.2 0.1l-1-1.8l-2.8-0.4M567.5 185l1.9-3.6l2.1 0.3M541.6 168.8l6.4-3.9l0.5-4.6l-0.6-2.7l1.5-1l1.3-2.3M550.7 154.3l1.2-0.6l3.6 0.5l1.2 0.9l1.4-0.6M558.1 154.5l2.6 4.5l2.1 1.1l0.6 2.2l-1.4 1.3l-0.3 3l2.6 3.6l4 2.1l2 2.8l-0.2 2.8l1 0l0.3 2l2 2M567.5 185l-5.8-0.3l-9.6-7.6l-4.9-2.6l-3.9-1.1M592.6 232.1l-4.2-8.9M588.4 223.2l9.2-3.8l1.4-7.5l-1.7-2.7M753.2 248.9l-1.2-4.5l1.7-3.2l4.1-0.7l3.1 0.5M760.9 241l2.8 1.5l1.1-2.6l3.1 1.4M767.9 241.3l1 2.5l0.1 4.5l-5.1 2.9l1.6 2.3l-3.3 0.3l-2.7 1.5M753.5 271.3l-1 1.6l-2.1 0.4l-0.3-1.9l-2.8-1.6l-0.5 0.6M741 257.4l2.7-7.4l-1.6-3.4l-0.7-3.9l-3.5-4.9l1-0.7l0.8-3.2l-6.1-8.6l1.2-0.7l0.9-4.1l2.2-0.1l3.3-2.5M741.2 217.9l1.5 1.1l0.6 2.3l2.2 0.2l-0.2 3.9l0.6 3.4l3-2.2l1.1 0.6l1.9-0.1l0.4-1.3l2.5 0.3l2.9 3l0.7 3.8l3 3.2l0.3 3.2l-0.8 1.7M741.2 217.9l0.4-1.4l2.3-2.5M743.9 214l0.5 0.9l1.7 0.1l-1.3-4.3l1.5-0.6M746.3 210.1l4.5 6.4l3.9 0.1l1.8 3.3l-1.9 1l-0.6 1.3l4.1 2.3l5.9 7.7l2.8 2.7l1.2 2.6l-0.1 3.8M716.4 216.9l-0.7-3l1.2 0.5l-0.4-2.7M716.5 211.7l1.4-0.9l-0.6-1.6l0.5-1.3l-0.6-3.9l2.6 0.9l0.9-3.1l-0.2-1.9l1.1-3.2l-0.6-2.1l3.5-2.6l2.4 0.7l-0.8-2.4l1-0.7l-0.6-1.4M726.5 188.2l1.8-0.3l1.5 2.2l1.6 0.9l1.3 6.1l-2.3 3.1l0.5 4.5l3.2-0.6l1.4 3.5l2.1 0.7l-0.3 3.1l4.1 2.1l2.1-1.1l0.4 1.6M746.3 210.1l1.6-0.9l5.5-0.4l2.3-2l1.8 1.4l3 0.7l0 2.2l1.8 1.5l3.4 1M810.3 135.5M809.2 149.1l0 0.9l-3.3 0.4l-0.4 1.7l-1.5 0.2M794.8 144.1l1.4-2.4l2.4-2l0.8-2.6l1.9 1.1l2.7 0.2l-1.4-2l3.8-1.6l0.1-2.1l3 2.2M754.6 107.2l0 6.4l1.5 1.5l1.4-0.4l3.1 0.5l1.5-1.3l3 1.2l3.9 2.5l0.3 1.3l-2.4-0.4l-4 0.5l-1.5 1.1l-1 2.4l-3.8 1.4l-2 2l-5.1-1.1l-0.5 2.4l2.6 2.7l-2.8 3.2l-2.9 1.3l-4.4 0.2l-4.2 1.3l-2.7 2l-1.8-1.2l-3.6 0l-5.2-2.3l-3.2-0.5l-3.7 0.5l-9.7-0.7l-2.5-2.3l-2.6-3.4l-2-0.4l-4.4-2.3l-7.9-1.2l-1.6-1.6l-0.5-4.3l-3.2-2.9l-4.7-1.4l-3.1-2l-1.8-2.5M716.5 211.7l-2.7-6l-0.9 0l-0.1 2.5l-2.1-2l0.6-2.2l1.4-0.2l0.9-3.2l-2-0.6l-6-0.5l-0.8-2.6l-1.5-0.2l-2.8-1.6l-0.6 2.5l2.6 2l-1.7 1.4l-0.4 1.4l2.1 1l-0.2 2.3l2.6 6M637.9 205.5l1.8-2.5l6.9 0l-1.1-3.3l-2-1.9l-0.8-2.9l-2.3-1.7l2.8-4l3.7 0.3l2.6-4l1.2-3.8l2.3-3.8l-0.6-2.7l2.2-2.2l-2.8-1.9l-3.4-5.8l1.1-1.7l4.9 1l3.3-0.6l2.2-3.2M659.9 160.8l4.3 4.5l0.4 3l1.6 2l0.4 1.9l-2.4-0.5l1.8 4.2l8.4 5M674.4 180.9l-1.6 1.7l-0.6 3.6l11.1 5.4l4.4 0.5l2.2 1.9l6.4 1.2l2.6 0l-0.9-5.6M698 189.6l1.8-0.7l0.9 2.9M700.7 191.8l0.2 0.8l3.1 1.4l1.9-0.6l5.2 0.2l-0.3-2.3l-1.5-1.3M709.3 190l2.4-0.4l2.3-2.8l3-2.5l2.8 1l1.9-1.6l2 2.3l-0.7 1.6l3.5 0.6M700.7 191.8l1.4-2.8l1.5-0.9l4.1 0.9l1.6 1M674.4 180.9l1.1-0.9l2.7 1.2l3.7 2.4l1.8 0.6l1.5 1.8l2.5 0.8l2.9 1.6l7.4 1.2M616.2 200.2l0.6-4.4l4.2-1.9l-0.5-1.8l-1.6-0.6l-0.5-3.3l-3.3-1.7l-3.4-4.2M611.7 182.3l5.5 1.9l3-0.6l2 0.5l0.5-0.8l2.2 0.3l3.8-1.6l-0.4-3.2l1.3-2.1l2.3 0l0.2-1.1l2.2-0.5l1.2 0.4l1.1-1.1l-0.6-2.3l0.8-2.2l1.8-1l-1.7-2.5l2.9 0.1l0.6-1.3l-0.4-1.5l1.1-1.6l-1.8-3.5l1.4-1.6l6.5-1.2l3-1.2M650.2 154.6l2.7 1.8l1.6 2.9l5.4 1.5M628 154.6l1 0.5l2-1.2l1.1 0.7l0.6-1.7l1.9 0l0.3-2l1-1.3l1.8 0.8l-0.1 1.2l1 0.1l0.4 3.2l1.5 1.2l2.2-1.1l1.5-1.7l5.2 0.3M649.4 153.6l0.8 1M611.7 182.3l2.3-3.5l-0.7-2.4l-2.4-0.6l-2.2-5.5l1-2l-1.4-0.6l0.7-7.5M609 160.2l3.4 1.5l2.2-0.5l0.3-1.7l2.3-0.6l1.5-1.2l0-3l2.4-0.7l0.2-1.3l2.6 1.1M634.9 142.9l-0.8 1.2l-3.5-0.6l0.3 2.1l3.2-0.3l4 1.3l5.5-0.6M643.6 146l1.7 3.5l0.9-0.4l2 0.9l1.2 3.6M660.2 135.1l-0.1 0.8l-4.1 2l-0.6 1.5l-3.7 0.5l-0.5 2.4l-3.3-0.5l-1.9 0.7l-2.4 1.8l0.7 0.8l-0.7 0.9M609 160.2l-0.9-3.1l-2.3-0.2l-4.1-3.3l-2.4-0.4l-3.8-1.9l-2.2-0.4l-1.2 0.7l-2-0.1l-1.8 2.2l-2.5 0.7M558.1 154.5l-2.1-3l0.4-1.2l-1.6-4.3l1.9-1.1M556.7 144.9l2.5 3.2l2.1 0.5M561.3 148.6l1.1-0.1M562.4 148.5l3.1-2.8l1.1-0.3l1 1.1l-0.7 1.9l2.2 2l0.7-0.2M532.5 159.6l1.4-1.7l0-2.1l1 0.8l3.3-1.1l1.7 0.7l2.5 0l3.3-1.4l5-0.5M561.3 148.6l-1.6-2.8l-1.3 0l-1.1-1l-0.6 0.1M556.7 144.9l-3.7-2l0-1.8l-0.7-1.3M552.3 139.8l4-0.6M556.3 139.2l2 1.6l-0.4 1l1.8 1.2l-0.7 1.2l2.9 1.7l0.5 2.6M473.2 41.3l7.8 3.7l0.8 5l1.1 1.3M511.6 99.2l-2.4 0.2l-0.7 0.8l0.1 1.8l-3.7-0.1l-0.9-0.9l-0.9 0.7l-9.5-1.8l-2.2 0.1l-1.4 1l-1.4 0.1M488.6 101.1l-0.2-1.6l-1.1-1.7l1.6-0.7l-1.4-4.4M487.5 92.7l2.7 0.1l2.9-1.4l0.3-2l2.1-1.1l-0.4-1.6M495.1 86.7l4.3-2M508.8 124.1l-1.4-0.6l-1.3 0.6l-1.4-0.7M504.7 123.4l0.7-0.4l1-2.5l-0.3-0.6l0.6-0.3l0.3 0.5l1.8 0.1l0.7-0.3l-0.6-0.3l0.1-0.6l-1.1-0.9l-0.6-1.6l-1.1-0.6l0-1.2l-1.4-1l-3.5-1.3l-2.4 0.9M498.9 113.3l-1.3 0l-0.6 0.9l-3 0.9l-1.4-0.9l-3.7-0.4l-1.2 0.8M487.7 114.6l-0.3-1l-1.7-1M485.7 112.6l1.2-2.4M486.9 110.2l0.6 0.2l-0.9-1.7l2.3-3l1.3-0.4l0.2-1l-1.8-3.2M486.9 110.2l-2.9-1.4l-2 0.5l-1.4-0.4l-1.6 0.8l-1.6-1.3l-1.3 0.3M476.1 108.7l-1.4-1.8l-2.2-0.3l-0.3-1.1l-2-0.4l-0.4 0.9l-1.6-0.7l0.1-1l-2.1-0.3l-1.4-1.2M464.8 102.8l-1.4-2.3l0.2-1.2l-0.9-2l-1.1-1.2l0.7-1l-0.7-1.8M485.3 91.2l1.4 0.4l0.8 1.1M471.2 113.7l-0.1 1.5l-1.7 0l0.6 0.8l-0.8 2.4M469.2 118.4l-0.5 0.6l-2.5 0.1l-1.4 0.8l-2.4-0.3M462.4 119.6l-4.2-0.9l-0.7-1.3l-2.9 0.6l-0.3 0.7l-1.7-0.5M452.6 118.2l-2.9-0.8l0.3-1.5M450 115.9l0.9-0.2l1.5 1l0.3-1l2.6 0.2l2-0.7l1.4 0.1l1 0.8l-0.4-3l1-0.5l1-1.7M461.3 110.9l2.2 1.2l2.5-1.8l2.3 1.1l1.3-0.1l1.4 0.6M471 111.9l0.2 1.8M487.7 114.6l-1.7 0.7l-2.6 5l-2.3 0.7M481.1 121l-1.8-0.1l-2.2 0.9M477.1 121.8l-1 0.6l-2.5-0.7l-3.2-2.1M470.4 119.6l-1.2-1.2M471.2 113.7l2.6 1.3l2.4-0.4l0.1-0.8l4.2-0.9l0.6-0.8l0.9-0.3l3.2 1.2l0.5-0.4M504.7 123.4l-0.7-1.7l-0.2-3.2l-4-4.8l-0.9-0.4M506.4 130l-4-1.7l-3.4 0.8l-1.4 1l-7.8-0.5l-0.9-1.6M488.9 128l-0.6-0.6l0.6-0.6l-0.8-0.5l-0.8 0.8l-1.8-1l-0.4-1.6l-1.8-0.8l-0.5-1.2l-1.7-1.5M479.9 85.2l3.1-1.1l7.2-0.1l0.5 0.8l1.5 0.2l2.9 1.7M488 79.1l2.3-0.7l3.7 1.8l2.3 0M464.8 102.8l-1.3 0.4l-0.7-0.4l-5.7 3.1l0.9 2.6l3.3 2.4M450 115.9l-3.1-1.1l-0.6 0.7l-2.4 0M440 108.8l0.1-1.6l-0.6-0.8M439.5 106.4l0.2-2.5M439.7 103.9l-0.5-3.8l1.6 0l0.7-1.3l0.6-3.3l-0.6-1.2M445.8 89l2.1 0.5l1.8-0.6M505.4 136.3l-2.6-0.5l-2.9 1.2M499.9 137l0.2 1.9l-2.7 0.3l-2.2-1.3l-2.3 1.1l-2.2-0.2M490.7 138.8l-0.5-2.4l-1.5-1.2M488.7 135.2l0.4-2.2l1.1-1.2l-1.6-1.6l-0.4-1.3l0.7-0.9M499.9 137l1.6 1l-0.7 2.3l-0.7 0.5M482.8 145.3l1.2-1.9l0.1-1.2l1-0.5l0-1M485.1 140.7l1.9-0.3l1.1-0.8l1.6 0l1-0.8M546 138.1l3.1-0.2l3.2 1.9M479.9 136.8l-0.3-1.2l1.1-1.8l0.3 0.7l0.7-0.3M481.7 134.2l1.5 1.4l0.3 1.3M483.5 136.9l-0.3 1.3l0.5 1.6l1.4 0.9M477.1 121.8l1.9 2.5l-1 1.4M478 125.7l-1.4-0.8l-4.6-0.6l-1.4 0.1l-0.6 0.8l-1.1-0.9l-0.5 1.6l6.1 6.6l2.7 1.4M477.2 133.9l-0.2 0.7M462.3 123.3l2.1 0.2l0.5-0.7l2.1 0.7l0-1l1-0.4l0.1-1.5l2.3-1M452.6 118.2l-0.2 1.5l-1.3 0.6l-2.1-0.4l-0.6 1.5l-1.4 0.1l-0.5-0.6l-1.6 1.2l-1.4 0.2l-1.3-0.8M438.5 108.5l0.3-2l0.7-0.1M431.7 101.9l2 0.3l2.6-0.7l3.4 2.4M395.5 136.8l2.3-1.5l0.7 1.8l4-0.3l0.8 1.9l-1.4 1l-0.8 5.2l-1.3 0.4l1.1 2.2l-0.9 2.5l1.1 1.1l-1.6 2.4l0.2 1.3M401.4 88.4l0.5 1.9l-0.6 1.9l1.7 0l2.1 0.7M462.4 119.6l-0.2 1.8l0.8 1.6M556.3 139.2l0.6-0.6l4.1 1.3l0.3-0.5l-1.8-2l0.7-0.5M792.9 277.7l1.6 2l0.6-1.3l1.6 0.1l0.1-4.2M471 111.9l0.3-0.8l2.2-0.3l0.7-1.3l1.9-0.8M561.2 247l-0.9 0.9l-1.4-0.3M558.9 247.6l-5-6l-2.8-1.5l-2.3 0l-0.8-0.8l-1.8 0.9l-2-1.7l-0.9 2.8l-3.8-0.8M559.5 233.2l1.4-1.2l-0.4-1.6l0.7-1.8l1.4 0.9l4.5-0.4l4.9 0.6l0.9 1.2l1.5-0.6l2-3.9l2.9-1.7l9.1-1.5M526.2 162.5l-3.9-0.3M501.7 211.9l-1.5-27.4l-1.1-3.1l0.7-2.3l-0.6-1.6l1-1.8M536.8 274l-2-4.1l-1.5-0.8l-0.6-1.5l-1.7-1.9l-2-0.2l1.1-2.2l1.7-0.1l0.5-1.1M558.9 247.6l-2.1 3.4l0.4 2.2l2.5-0.2l0.8 0.6M560.5 253.6l-0.7 1.4l3.8 5.2l10.8 4.5l2.7-0.1M561.6 251.6l-1.1 2M521.1 299l-1.9 1.1l-0.8-0.3M522.4 281.5l1.3-1l2.1 0.9l2.6-0.9l2.3 0l2-1.8M478 125.7l1 0l-0.6 1.6l1.5 1.5l-0.3 1.7l-0.6 0.2M479 130.7l-1.5 1.2l-0.3 2M483.5 136.9l0.4-0.7l2.4-0.7M486.3 135.5l2.4-0.3M486.3 135.5l0.5-1.7l-3.1-2.2l-1.5 1.7M482.2 133.3l0.2-0.3l-3.4-2.3M482.2 133.3l-0.5 0.9"/>
<g stroke-width="0.7" stroke-dasharray="2 3.5"><path d="M708.2 205Q587.4 102.2 429 111"/><path d="M708.2 205Q621.5 132.7 508.8 140.1"/><path d="M708.2 205Q653.4 180.1 596.5 199.8"/><path d="M708.2 205Q669.7 232.6 660.9 279.1"/><path d="M708.2 205Q776 248.3 795.3 326.3"/><path d="M708.2 205Q769.3 154.5 848.3 160.1"/><path d="M708.2 205Q840.8 278.1 886.5 422.5"/></g>
<g fill="#000" stroke="none"><circle cx="429" cy="111" r="2"/><circle cx="508.8" cy="140.1" r="2"/><circle cx="596.5" cy="199.8" r="2"/><circle cx="660.9" cy="279.1" r="2"/><circle cx="795.3" cy="326.3" r="2"/><circle cx="848.3" cy="160.1" r="2"/><circle cx="886.5" cy="422.5" r="2"/><circle cx="708.2" cy="205" r="3"/></g>
<circle cx="708.2" cy="205" r="7" stroke-width="0.8"/>
</svg>
